<svg xmlns="http://www.w3.org/2000/svg" version="1.0" width="2362px" height="1775px" viewBox="0 0 2362.000000 1775.000000" preserveAspectRatio="xMidYMid meet">
 <style>svg * { fill: rgb(254, 254, 254); }
</style> 


<g transform="translate(0.000000,1775.000000) scale(0.100000,-0.100000)" stroke="none" style="fill: rgb(254, 254, 254);">
<path d="M7370 14745 c0 -1647 2 -2995 4 -2995 3 0 73 84 157 188 601 736 1040 1240 1974 2262 664 727 880 975 1239 1420 273 338 426 537 540 700 48 69 92 126 96 128 18 6 290 -71 505 -143 1165 -390 2199 -1131 3021 -2165 559 -703 1023 -1575 1274 -2395 24 -77 47 -147 52 -155 8 -12 8 -11 4 3 -3 10 -6 1398 -6 3083 l0 3064 -4430 0 -4430 0 0 -2995z"/>
<path d="M12164 14193 c-87 -102 -474 -491 -634 -637 -664 -608 -1338 -1072 -2105 -1451 -581 -286 -1163 -500 -1810 -665 l-230 -59 -3 -1250 -2 -1251 4425 -2 4425 -3 -2 1179 -3 1179 -175 72 c-1060 432 -1918 956 -2665 1626 -162 145 -496 484 -638 647 -133 151 -312 376 -436 545 -51 70 -94 127 -95 127 -1 0 -24 -26 -52 -57z m1040 -2233 c485 -96 845 -369 954 -722 52 -167 49 -330 -7 -495 -120 -350 -510 -616 -864 -590 -238 18 -454 134 -699 377 -252 250 -351 456 -351 735 -1 220 62 396 200 560 71 85 148 128 268 150 113 21 356 14 499 -15z"/>
<path d="M7580 7483 c-19 -1 -87 -8 -150 -14 -772 -73 -1442 -403 -1854 -913 -237 -292 -390 -637 -457 -1031 -27 -153 -37 -512 -20 -677 47 -449 217 -855 489 -1163 305 -347 768 -592 1318 -699 255 -49 393 -61 744 -60 404 0 676 25 1070 100 144 27 454 103 542 133 l53 18 3 1036 2 1037 -345 0 -345 0 0 -844 0 -843 -142 -32 c-304 -67 -502 -86 -831 -78 -398 9 -673 69 -959 212 -466 232 -752 633 -845 1183 -28 166 -25 546 5 705 145 765 693 1257 1552 1393 142 23 611 26 785 6 285 -33 573 -94 819 -173 71 -22 131 -37 134 -34 4 4 30 129 58 278 41 222 48 273 37 280 -19 11 -324 82 -463 107 -161 29 -399 58 -570 70 -133 9 -547 11 -630 3z"/>
<path d="M22130 7484 c-522 -49 -897 -184 -1181 -427 -224 -192 -361 -471 -376 -767 -23 -464 200 -800 692 -1040 143 -69 284 -125 540 -214 484 -169 670 -250 817 -361 101 -76 158 -143 204 -240 94 -198 55 -474 -93 -658 -280 -346 -1008 -434 -1853 -222 -96 25 -176 43 -178 41 -7 -7 -40 -561 -34 -568 22 -23 429 -80 697 -98 1015 -68 1753 204 2085 769 173 295 202 716 70 1007 -70 155 -216 316 -390 433 -179 120 -399 217 -865 381 -502 177 -663 257 -815 410 -141 140 -188 302 -145 502 24 115 68 193 159 283 45 44 107 95 139 114 316 185 876 212 1540 74 70 -14 129 -24 131 -22 2 2 13 122 23 267 16 234 17 263 3 267 -27 8 -231 36 -375 51 -134 15 -695 27 -795 18z"/>
<path d="M1853 7393 c-8 -21 -382 -913 -830 -1983 -1056 -2520 -1013 -2417 -1013 -2424 0 -3 159 -6 353 -6 l354 0 211 518 210 517 1092 0 1092 0 211 -517 211 -518 388 0 c213 0 388 2 388 5 0 3 -216 517 -480 1143 -265 625 -687 1624 -938 2219 l-457 1083 -388 0 -388 0 -16 -37z m420 -771 c61 -216 103 -323 487 -1237 199 -473 364 -866 367 -872 4 -10 -179 -13 -896 -13 -600 0 -901 3 -901 10 0 6 165 405 366 888 282 675 384 930 441 1107 42 127 77 236 79 243 9 31 22 2 57 -126z"/>
<path d="M10823 5813 c3 -1603 3 -1619 25 -1728 102 -527 388 -857 897 -1032 448 -154 1154 -185 1695 -73 347 72 673 234 883 438 182 177 331 451 396 729 57 244 54 173 58 1791 l4 1492 -340 0 -340 0 -4 -1502 c-4 -1592 -3 -1571 -52 -1764 -77 -304 -253 -519 -515 -629 -267 -113 -704 -152 -1093 -99 -535 73 -825 333 -902 807 -13 79 -15 318 -15 1640 l0 1547 -350 0 -351 0 4 -1617z"/>
<path d="M16967 6653 c-179 -428 -596 -1424 -927 -2213 -331 -789 -604 -1441 -607 -1448 -4 -10 67 -12 352 -10 l358 3 210 518 211 517 1091 0 1090 0 210 -516 c115 -284 214 -518 220 -520 6 -2 181 -3 391 -2 l380 3 -262 620 c-144 341 -544 1288 -889 2105 -345 817 -650 1538 -677 1603 l-50 117 -388 0 -387 0 -326 -777z m703 65 c70 -269 102 -352 519 -1346 199 -473 361 -862 361 -866 0 -3 -405 -6 -900 -6 -495 0 -900 2 -900 5 0 3 158 384 351 848 375 898 432 1041 500 1265 24 78 46 142 51 142 4 0 12 -19 18 -42z"/>
<path d="M10327 2313 c-4 -3 -7 -168 -7 -366 0 -298 -2 -358 -14 -354 -7 3 -73 8 -147 12 -259 13 -449 -36 -608 -158 -117 -90 -219 -258 -263 -432 -20 -79 -23 -114 -22 -290 0 -173 3 -211 22 -280 62 -228 190 -370 378 -420 78 -21 241 -21 318 0 138 37 270 141 334 263 19 35 35 62 37 60 2 -2 0 -25 -5 -53 -4 -27 -11 -98 -14 -157 l-7 -108 135 0 136 0 0 1145 0 1145 -133 0 c-74 0 -137 -3 -140 -7z m-73 -944 l67 -13 -3 -340 c-4 -324 -5 -345 -27 -411 -86 -263 -251 -396 -449 -364 -163 25 -253 152 -282 394 -30 245 26 489 139 617 50 56 158 113 241 127 66 12 222 7 314 -10z"/>
<path d="M11884 2191 c-107 -48 -138 -190 -62 -277 42 -48 83 -67 143 -67 137 0 227 141 166 261 -23 46 -46 67 -94 87 -48 20 -103 19 -153 -4z"/>
<path d="M4912 1609 c-154 -18 -392 -88 -392 -115 0 -19 22 -218 25 -222 1 -1 35 13 77 32 131 61 224 81 383 81 167 0 212 -13 273 -79 54 -59 73 -121 75 -253 l2 -108 -135 -7 c-398 -20 -686 -166 -772 -391 -19 -50 -23 -81 -23 -162 0 -89 4 -107 29 -163 56 -121 167 -194 323 -212 241 -27 464 80 573 274 18 31 33 56 34 56 1 0 -1 -26 -5 -57 -4 -32 -8 -102 -8 -155 l-1 -98 135 0 135 0 -6 598 c-6 637 -8 661 -58 760 -90 178 -333 259 -664 221z m440 -919 c-10 -185 -113 -355 -258 -426 -75 -37 -200 -46 -270 -19 -139 53 -173 243 -63 354 91 91 307 152 524 147 l70 -1 -3 -55z"/>
<path d="M7525 1613 c-55 -7 -138 -34 -199 -65 -78 -39 -191 -153 -230 -231 -15 -32 -30 -57 -32 -54 -2 2 0 28 5 58 5 30 11 102 12 160 l3 104 -132 0 -132 0 0 -775 0 -775 137 0 138 0 5 460 5 460 28 81 c48 144 140 259 247 312 49 24 66 27 162 27 102 0 108 -1 150 -30 30 -21 52 -48 73 -90 l30 -60 5 -580 5 -580 138 -3 137 -3 0 604 c0 653 -1 660 -56 774 -33 68 -118 146 -189 172 -92 34 -209 47 -310 34z"/>
<path d="M14035 1613 c-55 -7 -138 -34 -199 -65 -78 -39 -191 -153 -230 -231 -16 -32 -30 -56 -32 -54 -2 1 1 32 6 67 5 36 10 108 11 160 l3 95 -134 0 -135 0 0 -775 0 -775 138 0 138 0 -1 370 c0 204 4 412 10 463 26 229 129 406 280 480 49 24 66 27 162 27 102 0 108 -1 150 -30 30 -21 52 -48 73 -90 l30 -60 5 -580 5 -580 138 -3 137 -3 0 594 c0 327 -4 616 -9 643 -5 28 -20 77 -32 109 -30 82 -121 173 -201 203 -95 35 -211 48 -313 35z"/>
<path d="M16227 1605 c-102 -14 -254 -54 -323 -84 l-40 -18 13 -114 c8 -62 15 -115 17 -117 2 -2 31 10 65 27 33 17 100 43 148 58 78 23 105 27 238 27 136 1 155 -1 201 -22 63 -29 96 -62 126 -127 18 -41 23 -72 26 -172 l4 -123 -93 0 c-52 0 -139 -7 -194 -15 -308 -47 -514 -163 -602 -342 -33 -67 -38 -86 -41 -168 -11 -236 113 -378 356 -405 241 -27 463 82 571 280 l28 51 -5 -156 -5 -155 134 0 134 0 -3 578 c-2 590 -6 648 -44 749 -24 66 -100 150 -166 186 -118 64 -348 91 -545 62z m473 -908 c0 -168 -112 -357 -255 -430 -48 -24 -76 -31 -141 -35 -96 -5 -141 7 -191 51 -98 86 -93 246 8 331 95 81 283 130 512 135 l67 1 0 -53z"/>
<path d="M18575 1594 c-104 -22 -226 -83 -288 -146 -158 -158 -168 -428 -22 -574 65 -66 130 -98 327 -163 234 -78 288 -124 288 -247 0 -50 -5 -68 -28 -103 -56 -82 -143 -122 -289 -129 -98 -4 -269 16 -331 39 -14 5 -28 7 -31 3 -3 -3 -7 -59 -9 -124 l-4 -117 37 -7 c78 -15 294 -23 385 -15 124 11 197 30 296 79 193 94 299 288 265 481 -30 172 -127 256 -401 349 -165 56 -219 82 -263 127 -84 83 -70 227 29 295 88 62 275 74 456 30 l77 -19 6 61 c4 34 5 86 3 116 l-3 55 -75 12 c-104 16 -339 15 -425 -3z"/>
<path d="M11825 1578 c-3 -7 -4 -357 -3 -778 l3 -765 138 -3 137 -3 0 781 0 780 -135 0 c-99 0 -137 -3 -140 -12z"/>
<path d="M19787 746 c-73 -30 -136 -82 -175 -143 -33 -52 -62 -146 -62 -203 0 -57 28 -151 61 -202 131 -203 420 -232 583 -58 26 28 59 76 74 108 23 49 27 70 27 152 0 82 -4 103 -27 152 -35 76 -95 138 -170 179 -57 30 -73 34 -158 36 -83 3 -103 0 -153 -21z m278 -59 c28 -14 69 -45 92 -69 120 -123 118 -323 -4 -445 -66 -66 -123 -88 -228 -88 -78 0 -97 4 -141 27 -67 35 -138 115 -159 179 -24 73 -17 188 15 253 31 62 106 129 173 156 73 29 183 23 252 -13z"/>
<path d="M19780 400 l0 -220 40 0 40 0 0 85 c0 47 4 85 8 85 5 0 34 -38 66 -85 l56 -85 51 0 c58 0 60 -9 -24 108 -32 46 -58 84 -56 85 2 2 20 10 40 19 68 31 89 137 36 186 -35 33 -72 42 -168 42 l-89 0 0 -220z m182 133 c45 -40 -1 -117 -66 -111 -31 3 -31 4 -34 66 l-3 62 42 0 c25 0 50 -7 61 -17z"/>
</g>
</svg>