<svg xmlns="http://www.w3.org/2000/svg" version="1.0" width="1920px" height="1080px" viewBox="0 0 1920.000000 1080.000000" preserveAspectRatio="xMidYMid meet">
 <style>svg * { fill: rgb(254, 254, 254); }
</style> 


<g transform="translate(0.000000,1080.000000) scale(0.100000,-0.100000)" stroke="none" style="fill: rgb(254, 254, 254);">
<path d="M9490 10461 c0 -4 -25 -34 -55 -66 -30 -32 -55 -64 -55 -71 0 -7 -16 -30 -36 -51 -62 -65 -124 -140 -124 -149 0 -5 -19 -29 -41 -54 -23 -25 -83 -97 -134 -160 -51 -63 -102 -124 -114 -134 -11 -11 -21 -23 -21 -29 0 -10 -70 -98 -106 -133 -12 -12 -33 -39 -47 -60 -13 -21 -35 -50 -49 -64 -13 -14 -44 -50 -68 -80 -25 -30 -50 -59 -55 -65 -6 -5 -24 -30 -41 -54 -16 -24 -42 -59 -59 -77 -16 -18 -38 -43 -47 -56 -35 -47 -111 -140 -135 -166 -14 -15 -36 -44 -49 -64 -20 -32 -53 -70 -124 -147 -8 -9 -28 -37 -45 -61 -16 -24 -51 -67 -77 -95 -26 -28 -60 -70 -75 -93 -16 -22 -53 -69 -83 -103 -30 -34 -66 -78 -80 -98 -28 -40 -73 -93 -107 -127 -13 -12 -23 -25 -23 -29 0 -9 -102 -138 -134 -171 -12 -11 -28 -31 -36 -43 -25 -39 -78 -105 -112 -139 -9 -9 -37 -44 -62 -77 -51 -67 -103 -131 -126 -155 -8 -9 -28 -35 -45 -60 -16 -24 -46 -60 -65 -81 -55 -59 -81 -91 -105 -129 -12 -19 -34 -47 -48 -62 -22 -24 -83 -99 -134 -166 -10 -13 -35 -42 -55 -65 -60 -67 -62 -70 -93 -115 -16 -24 -48 -63 -72 -88 -23 -25 -58 -68 -77 -97 -19 -29 -57 -75 -84 -103 -26 -28 -59 -68 -72 -90 -22 -37 -65 -88 -117 -139 -13 -12 -23 -25 -23 -29 0 -10 -90 -120 -101 -124 -5 -2 -9 -10 -9 -18 0 -12 50 -14 332 -12 l332 3 13 25 c6 13 28 41 48 62 19 21 35 42 35 48 0 5 4 10 9 10 10 0 101 114 101 127 0 5 10 18 23 29 23 21 51 54 133 159 26 33 61 74 78 91 33 32 45 50 72 99 9 17 23 34 31 38 8 5 41 43 73 85 82 106 111 140 142 172 15 15 39 45 53 66 27 39 65 87 119 147 15 18 39 48 51 67 13 19 44 56 69 82 25 26 46 50 46 53 0 10 133 175 142 175 4 0 8 7 8 15 0 9 6 18 14 21 7 3 27 26 44 52 17 26 46 63 64 82 29 30 76 88 136 168 9 12 24 30 33 40 17 18 81 100 114 146 11 15 44 53 73 84 28 30 52 59 52 63 0 8 85 115 111 139 26 25 89 108 89 117 0 5 10 18 23 30 32 29 78 83 112 134 17 24 47 62 68 84 65 69 67 71 67 79 0 9 69 95 113 141 16 17 43 50 59 75 17 25 36 50 42 55 16 13 254 308 285 351 l23 34 25 -20 c25 -20 83 -88 83 -99 0 -3 19 -26 41 -51 78 -86 94 -105 124 -149 16 -24 53 -69 82 -100 29 -31 53 -59 53 -62 0 -6 88 -121 99 -129 10 -8 87 -104 97 -121 5 -9 30 -41 57 -70 26 -30 75 -90 108 -134 34 -44 73 -90 86 -103 13 -13 34 -40 47 -60 13 -20 50 -66 81 -102 32 -36 65 -77 74 -91 14 -23 89 -114 131 -159 8 -8 29 -36 45 -60 17 -25 52 -67 78 -94 26 -28 63 -74 83 -102 19 -29 54 -74 79 -99 24 -26 60 -70 79 -98 19 -29 65 -83 101 -122 35 -38 65 -75 65 -81 0 -11 24 -40 100 -124 18 -19 43 -53 57 -74 14 -21 35 -48 47 -60 33 -32 106 -123 106 -132 1 -5 17 -27 36 -49 19 -22 79 -94 133 -160 53 -66 110 -133 125 -150 16 -16 40 -48 53 -69 14 -21 35 -48 47 -60 34 -32 136 -164 136 -175 0 -5 6 -14 14 -18 8 -4 44 -46 81 -93 36 -47 85 -106 108 -132 l42 -47 317 -1 c210 0 319 4 323 10 7 12 -9 40 -52 86 -60 65 -90 102 -142 172 -30 39 -58 72 -62 72 -4 0 -23 24 -42 53 -31 45 -49 68 -109 137 -21 23 -62 76 -78 100 -23 35 -110 135 -121 138 -5 2 -9 8 -9 14 0 9 -100 136 -148 187 -14 14 -32 38 -41 52 -15 24 -94 120 -133 160 -9 10 -22 28 -29 40 -15 28 -18 32 -79 99 -28 30 -68 80 -88 110 -20 30 -50 69 -67 87 -63 67 -86 94 -109 131 -13 20 -44 59 -70 86 -25 26 -46 50 -46 52 0 7 -51 78 -72 99 -30 29 -64 71 -139 170 -34 44 -70 87 -79 95 -10 8 -29 31 -42 50 -23 35 -38 55 -68 88 -8 9 -53 64 -99 122 -47 58 -92 113 -100 122 -9 10 -23 26 -32 35 -9 10 -35 45 -59 78 -24 33 -58 76 -77 95 -19 19 -49 57 -68 85 -18 27 -50 68 -70 90 -21 22 -63 74 -95 115 -32 41 -74 92 -94 113 -19 21 -51 61 -70 90 -19 29 -58 77 -86 107 -28 30 -66 78 -85 105 -18 28 -54 71 -79 97 -25 26 -46 50 -46 54 0 3 -11 20 -25 38 -67 82 -91 111 -106 125 -9 9 -35 42 -57 73 -23 32 -50 65 -61 75 -10 10 -45 54 -79 98 -33 44 -67 87 -74 95 -7 9 -40 48 -72 88 -35 43 -66 72 -77 72 -11 0 -19 -4 -19 -9z"/>
<path d="M10958 9847 c-20 -23 -57 -69 -82 -102 -48 -63 -83 -107 -128 -158 -16 -17 -28 -34 -28 -38 0 -8 -52 -70 -121 -146 -36 -39 -36 -60 -1 -98 15 -16 46 -55 69 -86 23 -31 58 -74 78 -95 19 -22 50 -63 68 -91 35 -58 43 -63 52 -33 3 11 10 20 14 20 4 0 22 23 41 51 18 28 43 55 57 62 22 10 28 6 78 -49 30 -32 55 -63 55 -68 0 -10 64 -93 90 -116 27 -25 100 -117 100 -127 0 -5 8 -16 18 -24 29 -26 102 -110 120 -138 22 -36 94 -124 108 -133 7 -5 29 -33 49 -63 20 -31 66 -88 101 -128 35 -40 64 -76 64 -82 0 -5 23 -35 50 -65 28 -30 61 -68 73 -83 12 -16 42 -54 67 -86 25 -31 58 -70 73 -86 16 -17 49 -59 74 -95 26 -36 54 -72 63 -80 25 -23 100 -117 100 -126 0 -4 7 -14 15 -23 83 -86 124 -136 170 -210 6 -9 36 -43 67 -76 32 -33 58 -65 58 -70 0 -10 34 -50 114 -136 19 -20 37 -45 40 -56 4 -11 30 -45 59 -76 28 -31 59 -66 67 -78 36 -51 71 -96 102 -129 53 -56 108 -126 108 -138 0 -6 17 -28 38 -49 22 -21 67 -74 101 -118 34 -44 90 -110 124 -148 l62 -67 279 2 c195 2 280 6 283 14 4 13 -39 66 -142 175 -8 9 -15 20 -15 26 0 5 -11 23 -25 39 -14 16 -39 45 -56 64 -17 19 -41 48 -55 63 -13 15 -24 31 -24 35 0 4 -18 27 -40 52 -22 25 -45 52 -52 60 -22 25 -62 77 -78 101 -8 12 -31 41 -51 63 -20 23 -76 91 -123 151 -48 61 -94 114 -102 118 -8 4 -14 12 -14 18 0 17 -49 79 -135 170 -8 9 -15 19 -15 23 0 9 -69 94 -116 144 -18 18 -45 52 -60 75 -15 23 -33 47 -39 52 -6 6 -39 46 -73 90 -56 72 -99 124 -157 191 -11 12 -29 35 -40 50 -46 64 -99 129 -110 136 -7 4 -34 39 -60 78 -26 39 -53 74 -59 78 -17 11 -96 109 -96 119 0 5 -17 27 -38 48 -44 47 -152 181 -152 190 0 3 -25 32 -55 63 -30 31 -55 60 -55 64 0 7 -74 100 -121 150 -16 18 -42 51 -56 73 -15 22 -34 47 -43 56 -51 54 -89 99 -115 139 -32 50 -42 61 -95 118 -37 39 -80 98 -80 110 0 4 -27 34 -60 67 -33 33 -60 64 -60 69 0 10 -57 82 -109 139 -20 20 -48 55 -62 77 -34 50 -100 130 -108 130 -3 0 -22 -19 -43 -43z"/>
<path d="M7952 9815 c-24 -35 -64 -85 -88 -110 -24 -25 -59 -69 -78 -98 -19 -29 -57 -75 -83 -102 -26 -28 -54 -63 -60 -78 -7 -15 -17 -27 -23 -27 -5 0 -10 -7 -10 -15 0 -9 -7 -18 -14 -21 -14 -5 -73 -78 -124 -153 -13 -19 -40 -51 -60 -71 -20 -20 -44 -47 -52 -60 -30 -45 -110 -145 -155 -194 -5 -6 -23 -30 -39 -54 -16 -24 -49 -63 -73 -88 -23 -25 -58 -68 -78 -97 -19 -29 -56 -75 -82 -102 -27 -28 -53 -61 -59 -75 -11 -24 -82 -108 -131 -156 -13 -12 -23 -26 -23 -31 0 -5 -9 -18 -20 -28 -11 -10 -20 -23 -20 -28 0 -5 -10 -20 -22 -32 -40 -38 -82 -89 -112 -132 -15 -23 -43 -58 -62 -77 -19 -19 -45 -52 -60 -73 -26 -38 -65 -87 -118 -146 -15 -18 -39 -50 -53 -71 -14 -22 -45 -60 -68 -85 -23 -25 -54 -64 -69 -85 -24 -36 -98 -125 -138 -167 -9 -10 -22 -28 -29 -40 -14 -28 -23 -38 -74 -94 -42 -46 -48 -54 -118 -146 -43 -56 -60 -77 -88 -107 -9 -9 -34 -42 -57 -73 -22 -31 -47 -62 -54 -70 -19 -19 -98 -118 -123 -153 -11 -16 -33 -43 -48 -60 -16 -17 -90 -109 -164 -203 -75 -95 -140 -173 -145 -173 -4 0 -8 -7 -8 -15 0 -13 41 -15 313 -15 l314 0 39 43 c21 24 53 63 69 87 17 24 39 53 50 65 51 55 81 92 91 115 6 14 24 39 41 55 39 40 113 135 113 145 0 5 16 26 36 47 19 21 72 85 116 143 45 58 87 109 95 113 7 4 13 13 13 20 0 12 58 85 98 123 12 12 22 26 22 32 0 9 60 91 99 132 38 42 61 72 61 81 0 5 15 24 33 42 47 48 107 122 107 134 0 11 27 44 81 101 20 21 39 47 43 57 3 11 29 45 56 75 28 30 66 78 86 107 19 28 48 65 64 82 17 16 30 32 30 35 0 15 78 114 128 162 12 12 22 25 22 29 0 4 10 20 23 35 12 15 29 37 37 50 8 13 32 40 53 61 20 20 37 42 37 47 0 11 70 104 108 142 14 14 36 42 49 63 13 21 44 59 68 85 25 26 45 50 45 54 0 12 43 71 82 113 57 62 68 75 68 81 0 6 26 41 77 102 16 18 36 43 45 55 l17 22 33 -35 c18 -19 49 -55 68 -80 19 -25 39 -48 45 -52 5 -4 24 8 40 26 78 88 92 105 120 146 17 24 54 69 83 100 41 43 52 62 52 87 0 33 -3 37 -127 170 -13 13 -23 29 -23 36 0 7 -25 39 -56 72 -30 33 -70 83 -89 110 -40 59 -127 155 -141 155 -5 0 -29 -29 -52 -65z"/>
<path d="M10095 8748 c-11 -7 -29 -23 -40 -37 -11 -14 -30 -36 -42 -47 -13 -12 -23 -25 -23 -28 0 -7 -96 -130 -137 -176 -7 -8 -34 -42 -59 -75 -25 -33 -52 -63 -59 -68 -8 -4 -15 -14 -15 -21 0 -8 -6 -16 -13 -19 -8 -3 -30 -29 -50 -59 -19 -29 -50 -69 -67 -88 -18 -19 -51 -60 -74 -90 -45 -60 -44 -59 -98 -122 -48 -54 -118 -146 -118 -153 0 -2 -27 -32 -60 -64 -33 -33 -60 -66 -60 -73 0 -7 -28 -44 -61 -82 -33 -38 -79 -94 -102 -125 -23 -30 -66 -80 -94 -111 -29 -30 -53 -58 -53 -62 0 -13 -50 -81 -80 -110 -17 -15 -30 -33 -30 -38 0 -6 -4 -10 -10 -10 -5 0 -27 -26 -48 -57 -22 -32 -60 -80 -86 -108 -25 -27 -58 -68 -73 -90 -16 -22 -32 -45 -38 -51 -29 -31 -92 -108 -147 -179 -34 -44 -71 -90 -82 -102 -32 -33 -49 -53 -76 -94 -14 -20 -52 -67 -85 -104 -33 -36 -60 -72 -60 -78 0 -9 80 -13 303 -15 l304 -2 21 27 c12 16 32 38 44 49 13 12 23 25 23 29 0 8 112 148 135 170 6 6 23 28 38 50 14 22 41 56 59 75 18 19 61 71 95 115 35 44 68 87 75 94 7 8 41 51 76 95 34 45 86 107 114 139 29 32 57 65 62 75 13 22 15 25 86 107 33 39 73 88 88 110 24 35 51 69 102 124 8 9 34 42 57 73 23 31 54 69 68 85 14 15 36 40 49 54 13 14 39 51 59 80 20 30 58 77 84 104 27 28 62 70 78 95 16 25 47 63 68 85 58 61 67 71 67 79 0 9 76 104 96 122 25 21 104 128 104 140 0 12 -29 51 -79 104 -13 14 -34 42 -48 63 -13 21 -33 47 -45 59 -38 38 -108 127 -108 138 0 13 -10 12 -35 -2z"/>
<path d="M8890 8738 c-6 -7 -26 -31 -46 -53 -19 -22 -46 -58 -61 -80 -15 -22 -34 -47 -43 -55 -27 -25 -130 -156 -130 -166 0 -5 14 -22 31 -39 16 -16 45 -52 63 -80 19 -27 45 -62 59 -77 40 -43 117 -139 117 -146 0 -4 24 -33 53 -64 56 -61 63 -71 134 -165 60 -80 78 -82 126 -10 31 46 95 123 150 179 9 10 17 23 17 28 0 6 8 18 18 28 9 10 28 30 40 44 l24 26 -41 54 c-22 29 -47 61 -55 70 -8 9 -60 73 -115 142 -56 69 -115 140 -131 158 -17 18 -30 36 -30 39 0 8 -73 98 -118 147 -33 35 -45 39 -62 20z"/>
<path d="M9834 7493 c-27 -32 -54 -62 -60 -68 -6 -5 -30 -35 -53 -65 -22 -30 -49 -66 -58 -78 -10 -13 -35 -40 -56 -60 -33 -32 -36 -37 -22 -51 38 -39 68 -76 89 -110 13 -20 39 -52 57 -72 75 -79 109 -121 109 -132 0 -7 24 -38 53 -70 28 -31 60 -67 69 -80 49 -64 116 -144 150 -181 21 -22 38 -46 38 -52 0 -6 24 -37 53 -70 29 -32 72 -84 97 -114 24 -30 50 -61 59 -67 11 -10 90 -13 318 -13 167 0 303 4 303 8 0 4 -16 23 -35 42 -19 19 -47 52 -62 74 -31 46 -35 51 -98 120 -25 27 -45 54 -45 60 0 7 -18 32 -41 56 -49 55 -80 93 -157 190 -32 41 -75 93 -95 114 -20 22 -40 48 -43 59 -3 10 -13 27 -22 36 -45 47 -89 99 -112 132 -14 21 -47 61 -75 91 -27 30 -63 74 -80 98 -30 44 -72 95 -112 137 -13 13 -23 26 -23 29 0 13 -74 94 -85 94 -7 0 -34 -26 -61 -57z"/>
<path d="M4335 5513 c-40 -2 -76 -10 -85 -18 -8 -8 -34 -18 -57 -23 -22 -5 -51 -17 -64 -26 -13 -9 -31 -16 -41 -16 -10 0 -18 -4 -18 -9 0 -6 -20 -24 -44 -41 -54 -39 -142 -146 -152 -184 -3 -15 -13 -30 -20 -33 -8 -3 -14 -16 -14 -29 0 -13 -10 -43 -22 -66 l-23 -43 0 -900 c0 -821 1 -903 17 -930 9 -17 19 -47 23 -67 4 -20 13 -39 21 -42 8 -3 14 -13 14 -23 0 -20 41 -82 90 -137 48 -53 163 -130 212 -141 15 -3 32 -13 39 -21 6 -8 28 -14 48 -14 20 0 74 -7 121 -15 97 -17 183 -19 209 -5 10 5 55 12 99 16 61 5 86 12 98 25 10 11 29 19 44 19 15 0 33 7 40 15 6 8 22 17 33 21 45 14 197 176 197 210 0 6 6 17 14 23 8 7 18 27 21 44 4 18 13 41 20 53 30 46 50 545 23 572 -15 15 -415 17 -438 2 -12 -8 -15 -48 -17 -242 -2 -213 -4 -233 -21 -248 -10 -8 -23 -27 -30 -42 -6 -16 -18 -28 -27 -28 -8 0 -25 -10 -36 -21 -17 -17 -36 -22 -99 -24 -52 -2 -86 2 -102 11 -12 7 -33 18 -45 23 -30 14 -63 48 -88 91 -20 34 -20 52 -23 868 -2 823 -2 834 18 859 11 14 20 33 20 43 0 37 103 96 190 106 50 7 144 -35 175 -77 14 -18 25 -37 25 -41 0 -5 9 -21 21 -37 18 -25 20 -44 23 -199 2 -95 6 -176 10 -180 12 -11 403 -13 433 -1 l26 10 -7 187 c-3 103 -11 203 -16 222 -14 54 -45 137 -57 152 -6 7 -13 26 -17 41 -8 32 -195 227 -218 227 -9 0 -27 9 -41 20 -14 11 -35 20 -46 20 -12 0 -34 9 -49 20 -23 16 -48 20 -182 23 -85 3 -186 3 -225 0z"/>
<path d="M7423 5472 c-11 -11 -13 -254 -11 -1365 l3 -1352 609 -3 c336 -1 614 2 618 6 5 5 9 96 9 203 l1 194 -383 3 c-211 1 -387 6 -391 10 -5 5 -8 521 -8 1148 0 626 -4 1145 -8 1152 -13 19 -420 23 -439 4z"/>
<path d="M9039 5474 c-5 -7 -8 -555 -7 -1365 l3 -1354 235 0 235 0 3 1357 2 1358 -22 5 c-49 11 -440 10 -449 -1z"/>
<path d="M11994 5472 c-11 -10 -12 -279 -9 -1360 1 -741 4 -1350 4 -1355 1 -4 101 -6 224 -5 l222 3 5 557 c3 306 7 558 10 561 3 2 51 8 108 13 l102 9 30 -28 c24 -22 30 -37 30 -68 0 -21 9 -56 20 -76 11 -21 20 -54 20 -74 0 -20 6 -42 14 -48 7 -6 17 -34 20 -63 4 -28 14 -60 22 -72 8 -11 14 -36 14 -56 0 -19 9 -50 20 -68 11 -18 20 -47 20 -65 1 -17 9 -50 20 -72 11 -22 20 -53 20 -70 0 -16 9 -43 20 -60 11 -16 20 -47 20 -68 0 -20 9 -54 20 -74 11 -21 20 -52 20 -69 0 -17 6 -37 14 -43 7 -6 16 -25 20 -41 l6 -30 222 2 223 3 3 37 c2 22 -5 50 -17 74 -12 21 -21 49 -21 61 0 13 -9 40 -20 60 -11 21 -20 52 -20 69 0 17 -6 37 -14 43 -8 6 -17 33 -21 58 -4 26 -13 56 -21 67 -8 11 -14 32 -14 46 0 14 -9 42 -20 63 -11 20 -20 47 -20 60 0 12 -9 40 -20 62 -11 22 -20 53 -20 70 0 16 -9 44 -20 60 -11 17 -20 44 -20 60 0 17 -9 44 -20 60 -11 17 -20 42 -20 58 0 15 -9 44 -20 64 -11 21 -20 53 -20 71 0 20 -6 35 -15 38 -9 4 -15 19 -15 40 0 30 4 35 31 41 41 8 185 151 194 192 3 16 13 35 20 41 8 7 17 28 21 49 4 20 12 43 19 51 15 19 38 214 38 335 0 118 -24 328 -41 348 -8 9 -15 33 -17 53 -1 21 -9 41 -19 46 -9 5 -16 17 -16 27 0 10 -8 28 -17 39 -10 12 -33 41 -51 66 -18 24 -52 57 -75 72 -23 16 -45 34 -50 41 -4 7 -23 15 -42 19 -18 3 -36 12 -39 20 -3 8 -18 14 -33 14 -16 0 -38 6 -49 14 -35 25 -85 28 -531 35 -347 5 -439 3 -449 -7z m804 -395 c10 -9 24 -17 30 -17 17 0 82 -69 82 -86 0 -8 9 -27 20 -42 19 -26 20 -42 20 -247 0 -205 -1 -221 -20 -247 -11 -15 -20 -34 -20 -43 0 -20 -43 -64 -90 -91 -60 -36 -353 -62 -371 -33 -5 8 -9 192 -9 410 0 303 3 398 13 408 9 10 50 12 169 9 130 -3 160 -7 176 -21z"/>
<path d="M14551 5482 c-424 -1 -598 -5 -608 -13 -11 -10 -13 -232 -11 -1363 l3 -1351 639 -3 c453 -1 643 1 652 9 10 8 13 52 12 187 0 98 -2 185 -5 195 -4 16 -32 17 -403 17 -219 0 -405 3 -414 6 -14 5 -16 50 -16 399 0 325 2 395 14 404 10 8 92 11 285 11 148 -1 275 1 281 5 14 8 14 350 0 376 -10 18 -24 19 -284 19 -219 0 -276 3 -285 14 -8 9 -11 110 -9 352 l3 339 380 5 380 5 3 186 c2 142 -1 188 -10 195 -7 5 -271 8 -607 6z"/>
<path d="M5957 5473 c-4 -3 -7 -19 -7 -34 0 -16 -9 -51 -20 -79 -11 -28 -20 -74 -20 -103 0 -29 -7 -65 -15 -81 -8 -16 -18 -67 -21 -115 -4 -47 -12 -97 -19 -111 -7 -14 -15 -57 -18 -96 -3 -40 -11 -82 -18 -95 -7 -13 -16 -65 -20 -116 -4 -58 -12 -99 -23 -114 -11 -16 -16 -44 -16 -86 0 -39 -8 -81 -20 -113 -13 -32 -20 -74 -20 -116 0 -45 -6 -77 -20 -104 -14 -26 -20 -59 -20 -100 0 -34 -6 -74 -15 -90 -8 -16 -18 -68 -21 -117 -4 -48 -13 -97 -19 -108 -7 -11 -15 -55 -19 -98 -3 -43 -12 -90 -20 -105 -7 -15 -16 -61 -19 -103 -3 -41 -12 -92 -21 -113 -9 -21 -16 -62 -16 -92 0 -30 -9 -76 -20 -104 -13 -33 -20 -74 -20 -118 0 -49 -6 -78 -21 -106 -11 -22 -19 -51 -17 -70 l3 -31 221 -3 221 -2 6 68 c4 38 13 87 20 108 8 21 17 93 21 158 4 71 13 130 21 147 8 15 15 48 15 73 0 25 4 47 9 50 7 5 427 10 487 7 24 -2 46 -78 54 -186 4 -60 12 -122 18 -138 7 -15 15 -78 18 -140 4 -61 11 -120 16 -130 8 -16 27 -17 221 -15 l212 3 3 68 c2 50 -3 85 -18 128 -11 32 -20 84 -20 114 0 36 -7 68 -20 92 -14 26 -20 57 -20 101 0 34 -7 78 -15 98 -8 19 -17 69 -21 112 -4 42 -13 86 -19 97 -7 11 -15 56 -18 100 -3 44 -12 97 -21 117 -9 21 -16 65 -16 100 0 42 -6 75 -19 98 -11 21 -20 66 -24 115 -3 44 -12 97 -21 117 -9 21 -16 65 -16 98 0 41 -6 72 -20 97 -13 25 -20 57 -20 98 -1 33 -8 78 -16 100 -8 22 -17 74 -21 115 -3 41 -11 84 -18 95 -6 11 -15 56 -19 100 -3 44 -13 98 -21 120 -8 22 -14 67 -15 100 0 39 -7 73 -19 95 -12 23 -20 64 -23 117 -3 53 -11 90 -22 107 l-16 26 -279 0 c-153 0 -281 -3 -284 -7z m297 -589 c3 -9 6 -34 6 -57 0 -23 7 -55 16 -72 10 -18 19 -64 22 -115 2 -47 10 -97 17 -111 8 -14 16 -70 20 -125 3 -54 12 -117 20 -139 7 -22 16 -74 19 -115 3 -41 12 -93 20 -115 7 -22 15 -87 17 -145 l4 -105 -175 0 -175 0 -3 57 c-2 36 3 70 13 95 9 21 19 81 22 133 4 55 12 104 20 116 8 12 16 61 19 110 4 49 12 107 19 129 7 22 16 83 20 135 4 52 14 107 21 122 8 15 14 56 14 91 0 36 3 79 6 96 7 33 28 42 38 15z"/>
<path d="M10035 5469 c-3 -8 -4 -621 -3 -1364 l3 -1350 420 0 c375 0 425 2 468 18 26 9 67 17 91 17 25 0 48 6 55 14 7 8 28 17 48 21 33 6 77 31 111 63 7 6 19 12 27 12 24 0 155 167 155 197 0 6 7 16 15 23 8 7 15 25 15 41 0 16 9 38 20 49 15 15 20 33 20 73 0 29 7 79 15 110 8 32 15 98 15 147 0 49 -7 115 -15 147 -8 31 -15 78 -15 104 0 33 -5 51 -20 64 -11 10 -20 31 -20 47 0 16 -6 31 -14 34 -8 3 -17 17 -21 32 -12 48 -167 182 -229 198 -14 3 -26 11 -26 17 0 14 60 67 76 67 18 0 134 130 134 150 0 9 9 25 20 35 11 10 20 30 20 44 0 15 9 43 20 64 18 34 20 56 20 247 0 160 -3 218 -14 238 -7 15 -17 46 -21 69 -4 24 -11 45 -16 48 -4 3 -20 29 -34 58 -33 66 -113 147 -173 178 -26 12 -53 29 -60 36 -7 7 -23 13 -35 13 -12 0 -40 10 -62 21 -39 21 -53 22 -512 27 -397 4 -473 3 -478 -9z m733 -376 c48 -5 60 -12 118 -68 35 -34 64 -68 64 -76 0 -8 8 -27 17 -44 11 -21 17 -65 21 -154 5 -139 0 -158 -76 -273 -22 -32 -99 -88 -123 -88 -9 0 -33 -7 -52 -15 -52 -22 -200 -21 -218 2 -11 13 -15 86 -17 357 -3 314 -2 342 14 353 19 14 160 18 252 6z m65 -1133 c14 -11 33 -20 42 -20 21 0 115 -96 115 -117 0 -8 9 -26 20 -40 14 -18 20 -42 21 -82 0 -31 3 -64 7 -73 4 -10 2 -76 -3 -147 -8 -98 -15 -134 -28 -149 -9 -10 -17 -25 -17 -32 0 -26 -53 -90 -95 -115 -26 -15 -59 -25 -82 -25 -21 0 -54 -5 -73 -10 -21 -7 -72 -8 -126 -4 -85 6 -93 8 -103 31 -14 31 -15 740 -1 777 l10 26 143 0 c129 0 147 -2 170 -20z"/>
<path d="M9591 2079 c-18 -4 -38 -12 -44 -18 -6 -6 -21 -11 -34 -11 -62 0 -213 -126 -213 -178 0 -10 -9 -31 -20 -45 -17 -22 -20 -40 -20 -144 0 -84 4 -124 14 -138 7 -11 17 -31 21 -44 15 -47 93 -141 117 -141 6 0 21 -9 35 -20 14 -11 34 -20 43 -20 10 0 23 -7 30 -15 20 -24 232 -21 285 5 22 11 51 20 65 20 14 0 35 9 48 20 23 19 23 23 23 192 0 95 0 179 -1 186 0 10 -29 12 -127 10 l-128 -3 -3 -47 c-3 -53 -8 -50 80 -53 32 0 60 -4 64 -8 11 -11 11 -177 0 -186 -21 -15 -137 -41 -183 -41 -27 0 -57 7 -67 15 -11 8 -29 15 -41 15 -26 0 -70 40 -109 98 -28 41 -29 47 -29 156 0 105 2 117 24 146 58 76 89 99 170 127 l68 24 38 -21 c21 -11 49 -20 63 -20 14 0 33 -9 43 -20 9 -11 24 -20 32 -20 15 0 95 76 95 90 0 12 -100 60 -126 60 -14 0 -36 7 -49 16 -27 17 -110 24 -164 13z"/>
<path d="M11273 2083 c-29 -2 -57 -10 -63 -18 -7 -8 -25 -15 -40 -15 -15 0 -39 -9 -53 -20 -14 -11 -29 -20 -33 -20 -12 0 -88 -82 -112 -122 -12 -19 -22 -44 -22 -54 0 -11 -8 -32 -17 -49 -21 -39 -20 -178 2 -212 8 -12 15 -36 15 -53 0 -17 6 -33 14 -36 8 -3 19 -17 26 -32 15 -35 112 -115 152 -125 18 -5 41 -15 52 -23 14 -10 50 -14 117 -14 81 0 100 3 122 20 14 11 34 20 46 20 18 0 121 86 110 92 -2 2 -18 13 -36 26 -32 22 -103 31 -103 12 0 -16 -112 -64 -147 -63 -17 1 -42 8 -55 17 -12 9 -31 16 -41 16 -25 0 -92 64 -124 120 -23 38 -27 58 -29 132 -1 73 2 92 17 112 11 13 19 29 19 35 0 16 98 111 114 111 7 0 34 9 59 20 l46 21 40 -21 c22 -11 49 -20 61 -20 11 0 25 -9 32 -20 7 -11 21 -20 31 -20 22 0 87 50 87 67 0 19 -91 83 -118 83 -14 0 -33 6 -41 14 -20 17 -62 23 -128 19z"/>
<path d="M12335 2083 c-16 -2 -37 -10 -45 -17 -8 -8 -32 -16 -52 -19 -21 -3 -45 -12 -54 -19 -56 -45 -124 -113 -124 -123 0 -7 -7 -18 -15 -25 -8 -7 -15 -25 -15 -40 0 -15 -9 -39 -20 -53 -26 -33 -29 -170 -5 -197 9 -10 19 -35 22 -56 6 -38 26 -74 68 -122 20 -24 100 -82 113 -82 4 -1 25 -9 47 -20 58 -28 210 -28 262 0 21 11 45 20 53 20 9 0 23 9 33 20 9 11 23 20 30 20 26 0 117 125 117 161 0 7 8 21 17 31 23 26 22 208 -1 243 -9 14 -16 32 -16 42 -1 58 -150 203 -209 203 -14 0 -36 7 -48 15 -23 16 -110 26 -158 18z m83 -117 c15 -7 43 -17 62 -21 25 -5 54 -26 100 -74 l64 -66 0 -119 c-1 -111 -2 -121 -22 -134 -12 -8 -22 -23 -22 -32 0 -22 -76 -90 -100 -90 -9 0 -25 -7 -36 -15 -25 -19 -124 -20 -150 0 -10 8 -26 15 -34 15 -21 0 -110 85 -110 104 0 8 -8 19 -17 25 -15 8 -19 27 -21 109 -4 95 -2 103 24 149 31 53 101 122 124 123 8 0 33 9 55 19 50 24 50 24 83 7z"/>
<path d="M4150 2038 c-3 -99 2 -723 6 -727 11 -12 80 1 92 17 11 13 13 74 12 282 -2 146 -2 271 -1 278 2 24 31 13 31 -12 0 -14 11 -37 25 -52 15 -16 25 -39 25 -57 0 -17 7 -38 15 -47 9 -10 19 -35 22 -56 3 -22 12 -47 20 -56 8 -9 17 -35 20 -57 3 -22 12 -46 19 -52 8 -6 14 -27 14 -45 0 -22 7 -40 20 -51 11 -10 20 -27 20 -38 0 -31 21 -52 58 -59 29 -5 34 -2 43 22 6 15 16 34 23 42 8 8 16 35 20 59 4 24 13 53 21 64 8 12 15 34 15 49 0 16 9 36 20 45 12 10 20 30 20 48 0 16 9 44 20 60 11 17 20 43 20 58 0 16 9 40 20 54 11 14 20 34 20 44 0 44 33 69 43 32 3 -10 5 -139 6 -287 0 -149 4 -273 9 -278 5 -5 27 -8 48 -6 l39 3 3 368 2 367 -90 0 c-103 0 -130 -15 -130 -71 0 -17 -9 -42 -20 -56 -11 -14 -20 -38 -20 -53 0 -15 -6 -33 -14 -39 -7 -6 -16 -30 -19 -52 -3 -22 -12 -48 -21 -58 -9 -10 -16 -26 -16 -36 0 -10 -9 -36 -19 -59 -11 -23 -22 -49 -25 -58 -3 -10 -15 -18 -26 -18 -16 0 -20 7 -20 31 0 17 -9 42 -20 56 -11 14 -20 40 -20 58 0 18 -7 38 -15 45 -8 7 -17 28 -21 49 -4 20 -13 43 -21 52 -7 9 -17 34 -20 55 -3 22 -12 46 -19 55 -8 8 -17 31 -20 50 -4 19 -12 37 -18 41 -20 14 -196 9 -196 -4z"/>
<path d="M5532 2038 c-9 -9 -12 -102 -12 -358 0 -256 3 -349 12 -358 16 -16 98 -16 98 1 0 25 1 703 0 715 0 16 -82 16 -98 0z"/>
<path d="M6213 2043 c-18 -7 -19 -703 -1 -721 7 -7 33 -12 59 -12 40 0 48 3 53 23 3 12 6 136 6 275 0 242 1 252 19 252 11 0 23 -9 27 -22 3 -12 22 -43 40 -70 19 -26 34 -51 34 -55 0 -8 49 -82 68 -101 6 -7 12 -18 12 -24 0 -6 7 -20 17 -30 20 -22 38 -54 54 -90 6 -16 15 -28 20 -28 5 0 15 -15 23 -32 8 -18 25 -46 39 -63 23 -27 31 -30 101 -33 69 -4 76 -2 76 14 1 23 1 706 0 717 0 10 -82 9 -98 -2 -11 -7 -14 -60 -13 -265 1 -141 -2 -256 -6 -256 -13 0 -73 70 -73 85 0 8 -6 18 -12 22 -18 11 -54 64 -62 91 -4 12 -11 22 -16 22 -9 0 -26 28 -55 88 -8 17 -19 32 -24 32 -5 0 -19 21 -31 46 -13 25 -33 57 -46 71 -13 14 -24 32 -24 39 0 7 -9 18 -19 24 -20 10 -145 13 -168 3z"/>
<path d="M7457 2043 c-9 -8 -9 -680 -1 -710 6 -20 13 -23 60 -23 42 0 55 4 64 19 6 13 10 146 10 364 0 305 -2 346 -16 351 -21 8 -109 8 -117 -1z"/>
<path d="M8093 2044 c-17 -7 -18 -700 -2 -720 17 -20 105 -19 113 2 3 9 6 125 6 259 0 134 3 250 6 259 10 26 34 18 40 -13 4 -17 15 -38 25 -47 11 -9 19 -21 19 -25 0 -5 25 -45 55 -89 30 -44 55 -84 55 -89 0 -4 9 -16 20 -26 11 -10 20 -23 20 -30 0 -6 18 -36 40 -65 22 -29 40 -58 40 -64 0 -6 16 -28 35 -48 33 -37 36 -38 104 -38 65 0 71 2 76 23 3 12 4 177 3 367 l-3 345 -45 3 c-25 1 -51 -1 -57 -6 -10 -6 -13 -73 -14 -265 0 -141 -4 -257 -8 -257 -12 0 -71 58 -71 70 0 6 -16 32 -35 57 -19 25 -35 50 -35 56 0 6 -7 19 -17 29 -19 21 -38 52 -55 91 -7 15 -15 27 -19 27 -4 0 -22 26 -39 58 -18 31 -39 61 -46 65 -8 4 -14 14 -14 21 0 7 -10 22 -23 34 -20 18 -35 22 -93 21 -38 0 -74 -3 -81 -5z"/>
<path d="M13267 2043 c-9 -8 -9 -696 -1 -717 9 -23 119 -23 128 0 3 9 6 78 6 154 0 125 2 140 18 149 32 17 74 -2 108 -50 18 -24 33 -49 33 -56 1 -15 47 -102 65 -123 7 -8 16 -27 20 -42 3 -15 14 -32 24 -37 21 -11 142 -20 142 -10 0 14 -30 78 -40 84 -6 4 -17 21 -25 38 -8 18 -26 50 -40 72 -13 22 -27 47 -32 55 -4 8 -16 23 -28 32 -20 16 -20 16 8 46 16 16 41 32 55 35 15 3 38 20 52 39 22 29 25 45 28 128 3 88 1 98 -21 128 -13 17 -45 43 -71 57 -45 24 -54 25 -235 25 -103 0 -191 -3 -194 -7z m382 -139 c25 -42 26 -61 6 -101 -29 -59 -43 -64 -151 -61 l-99 3 -3 84 c-2 46 -1 90 2 98 4 10 33 13 115 13 l109 0 21 -36z"/>
<path d="M14347 2043 c-4 -3 -7 -164 -7 -358 0 -260 3 -354 12 -363 7 -7 34 -12 60 -12 43 0 50 3 59 26 5 15 8 81 6 146 -2 73 1 125 8 133 7 10 45 15 132 17 97 3 126 7 141 21 10 9 26 17 34 17 9 0 28 20 42 44 22 38 26 57 26 124 0 67 -4 87 -26 126 -14 25 -32 46 -40 46 -7 0 -28 9 -46 20 -30 18 -51 20 -214 20 -99 0 -184 -3 -187 -7z m350 -125 c28 -31 37 -80 23 -123 -15 -47 -33 -54 -135 -59 -112 -4 -114 -2 -110 111 2 49 4 89 4 91 1 1 45 2 99 2 89 0 100 -2 119 -22z"/>
</g>
</svg>