<svg xmlns="http://www.w3.org/2000/svg" version="1.0" width="436px" height="262px" viewBox="0 0 436.000000 262.000000" preserveAspectRatio="xMidYMid meet">
 <style>svg * { fill: rgb(254, 254, 254); }
</style> 


<g transform="translate(0.000000,262.000000) scale(0.100000,-0.100000)" stroke="none" style="fill: rgb(254, 254, 254);">
<path d="M435 1672 c-220 -73 -217 -431 4 -496 111 -33 246 -10 303 52 27 28 58 83 58 102 0 10 -87 57 -92 49 -2 -2 -12 -22 -23 -43 -29 -57 -66 -81 -125 -81 -60 0 -96 24 -127 85 -37 73 -25 156 31 217 60 66 172 55 218 -23 17 -29 25 -34 59 -34 l39 0 0 90 0 90 -40 0 c-30 0 -40 -4 -40 -16 0 -12 -5 -14 -17 -9 -93 39 -166 44 -248 17z"/>
<path d="M3496 1668 c-9 -12 -16 -29 -16 -38 0 -29 30 -60 59 -60 52 0 82 68 45 104 -23 24 -70 20 -88 -6z"/>
<path d="M1860 1640 c0 -36 3 -40 25 -40 24 0 25 -3 25 -56 l0 -55 -26 20 c-35 27 -107 28 -150 2 -82 -50 -105 -181 -50 -275 43 -74 125 -98 193 -56 27 16 32 17 35 3 2 -12 19 -15 88 -15 l85 0 0 39 c0 36 -2 38 -27 35 l-28 -3 0 220 0 221 -85 0 -85 0 0 -40z m20 -210 c42 -22 44 -135 3 -165 -30 -23 -69 -18 -92 11 -33 42 -25 131 13 156 16 11 54 10 76 -2z"/>
<path d="M2480 1640 c0 -36 3 -40 25 -40 l25 0 0 -181 0 -181 -25 4 c-23 5 -25 2 -25 -28 0 -19 0 -37 0 -40 0 -3 48 -6 107 -6 l108 -1 3 36 c3 32 1 36 -25 39 l-28 3 0 218 0 217 -82 0 -83 0 0 -40z"/>
<path d="M885 1510 c-22 -11 -46 -28 -52 -39 -11 -18 -9 -21 30 -29 31 -6 47 -5 62 5 47 31 125 2 125 -47 0 -18 -5 -19 -63 -13 -75 7 -123 -11 -150 -56 -21 -37 -22 -90 -1 -120 33 -47 122 -65 178 -36 34 18 36 18 36 3 0 -10 44 -12 196 -10 l195 3 -3 37 c-3 32 -6 37 -28 37 -24 0 -25 2 -28 83 l-3 83 32 13 c69 29 81 6 78 -151 l-2 -105 82 -1 81 -2 0 41 c0 36 -3 40 -22 40 -22 -1 -23 3 -28 104 -3 58 -11 115 -18 127 -30 53 -93 68 -160 36 -26 -12 -37 -14 -40 -5 -2 8 -30 12 -83 12 l-79 0 0 -40 c0 -35 3 -39 23 -37 21 2 22 0 22 -98 l0 -100 -50 0 -50 0 -5 105 c-6 118 -17 146 -65 166 -51 21 -162 18 -210 -6z m130 -194 c19 -8 35 -22 35 -30 0 -20 -48 -56 -74 -56 -47 0 -63 57 -24 84 27 19 21 19 63 2z"/>
<path d="M2195 1515 c-76 -41 -111 -110 -102 -200 7 -67 33 -107 90 -134 49 -24 148 -28 194 -9 29 12 83 57 83 68 0 4 -18 12 -39 19 -35 10 -44 9 -73 -9 -47 -28 -84 -26 -119 9 -55 55 -45 61 107 61 l137 0 -7 41 c-10 65 -31 104 -71 135 -31 23 -50 29 -104 32 -47 2 -75 -2 -96 -13z m136 -85 c17 -16 28 -34 24 -40 -3 -5 -40 -10 -81 -10 -83 0 -94 11 -49 55 33 34 70 32 106 -5z"/>
<path d="M2775 1511 c-22 -10 -46 -28 -52 -39 -12 -19 -10 -22 30 -30 31 -6 47 -5 62 5 47 31 125 1 125 -49 0 -17 -6 -18 -49 -12 -70 9 -115 -2 -151 -37 -53 -53 -38 -139 30 -174 36 -19 97 -19 130 0 31 18 40 18 40 3 0 -10 48 -13 205 -13 l205 0 0 40 c0 41 0 41 -35 37 l-35 -4 0 46 c0 79 43 136 102 136 27 0 28 1 28 56 l0 57 -37 -6 c-26 -4 -49 -18 -70 -42 l-33 -35 0 35 0 35 -86 0 -85 0 3 -37 c3 -35 6 -38 36 -41 l33 -3 -3 -97 -3 -97 -55 0 -55 0 -5 105 c-6 118 -15 140 -64 164 -48 22 -159 21 -211 -3z m163 -224 c4 -19 -45 -57 -74 -57 -27 0 -54 34 -47 60 11 41 113 39 121 -3z"/>
<path d="M3745 1523 c-25 -6 -85 -51 -85 -63 0 -17 83 -28 105 -13 45 30 105 9 117 -42 5 -20 1 -21 -73 -20 -93 0 -126 -18 -149 -84 -13 -37 -13 -45 0 -69 36 -64 114 -87 187 -57 42 18 44 18 41 4 -2 -6 27 -10 82 -11 l85 0 0 38 c0 34 -3 39 -25 39 -25 0 -25 1 -30 102 -5 109 -20 144 -71 170 -23 12 -143 16 -184 6z m135 -228 c16 -19 -30 -65 -63 -65 -54 0 -73 71 -24 89 25 9 70 -4 87 -24z"/>
<path d="M3430 1480 c0 -36 3 -40 25 -40 l25 0 0 -100 0 -100 -26 0 c-23 0 -25 -3 -22 -36 l3 -36 108 -1 107 -2 0 38 c0 33 -3 37 -25 37 l-25 0 0 140 0 140 -85 0 -85 0 0 -40z"/>
<path d="M2350 1045 c0 -8 5 -15 10 -15 6 0 10 -28 10 -65 0 -37 -4 -65 -10 -65 -5 0 -10 -7 -10 -15 0 -11 11 -15 40 -15 29 0 40 4 40 15 0 8 -4 15 -10 15 -6 0 -10 33 -10 80 l0 80 -30 0 c-20 0 -30 -5 -30 -15z"/>
<path d="M2820 1045 c0 -8 5 -15 10 -15 6 0 10 -9 10 -20 0 -22 -10 -26 -27 -9 -9 9 -18 8 -37 -5 -33 -21 -43 -62 -25 -95 15 -26 16 -26 162 -29 127 -3 147 -1 147 13 0 8 -4 15 -10 15 -5 0 -10 16 -10 36 0 28 3 35 18 32 13 -2 18 -15 20 -51 3 -42 6 -47 27 -47 26 0 46 21 27 28 -7 2 -12 17 -12 33 0 56 -13 67 -80 68 -46 0 -60 -3 -60 -15 0 -7 5 -14 10 -14 6 0 10 -16 10 -35 0 -28 -4 -35 -20 -35 -17 0 -20 7 -20 50 0 49 -1 50 -30 50 -20 0 -30 -5 -30 -15 0 -8 5 -15 10 -15 6 0 10 -16 10 -35 0 -28 -4 -35 -20 -35 -18 0 -20 7 -20 80 l0 80 -30 0 c-20 0 -30 -5 -30 -15z m15 -96 c10 -30 -18 -57 -39 -39 -16 13 -21 42 -9 53 14 14 42 6 48 -14z"/>
<path d="M2922 1043 c2 -10 10 -18 18 -18 8 0 16 8 18 18 2 12 -3 17 -18 17 -15 0 -20 -5 -18 -17z"/>
<path d="M3472 1043 c5 -26 38 -29 38 -4 0 15 -6 21 -21 21 -14 0 -19 -5 -17 -17z"/>
<path d="M3710 1039 c0 -14 5 -19 17 -17 26 5 29 38 4 38 -15 0 -21 -6 -21 -21z"/>
<path d="M2430 985 c0 -8 4 -15 9 -15 6 0 11 -21 13 -47 l3 -48 103 -3 c86 -2 102 0 102 13 0 8 -5 15 -11 15 -18 0 -6 64 13 68 14 3 17 -6 20 -45 3 -44 5 -48 31 -51 19 -2 27 1 27 12 0 9 -4 16 -9 16 -6 0 -11 21 -13 48 l-3 47 -67 2 c-62 2 -84 -6 -58 -22 6 -3 10 -22 10 -41 0 -27 -4 -34 -20 -34 -17 0 -20 7 -20 50 0 49 -1 50 -30 50 -33 0 -38 -11 -15 -30 18 -15 19 -42 3 -58 -22 -22 -28 -13 -28 38 0 49 -1 50 -30 50 -20 0 -30 -5 -30 -15z"/>
<path d="M3190 989 c0 -5 7 -12 15 -15 21 -9 21 -74 -1 -74 -35 0 -4 -25 34 -28 33 -2 42 0 42 12 0 9 -4 16 -10 16 -5 0 -10 16 -10 36 0 31 3 35 23 32 19 -3 22 -10 25 -50 3 -46 5 -48 33 -48 19 0 29 5 29 15 0 8 -4 15 -10 15 -5 0 -10 16 -10 36 0 31 3 35 23 32 19 -3 22 -10 25 -50 l3 -48 105 0 c86 0 104 3 104 15 0 8 -5 15 -11 15 -18 0 -6 64 14 68 14 3 17 -4 17 -47 l0 -51 110 0 c91 0 110 3 110 15 0 8 -4 15 -10 15 -5 0 -10 16 -10 36 0 28 3 35 18 32 13 -2 18 -15 20 -51 3 -45 5 -47 33 -47 29 0 39 13 19 25 -5 3 -10 23 -10 44 0 50 -13 59 -82 60 -45 0 -58 -3 -58 -14 0 -8 5 -15 10 -15 6 0 10 -16 10 -35 0 -28 -4 -35 -20 -35 -17 0 -20 7 -20 50 0 49 -1 50 -30 50 -20 0 -30 -5 -30 -15 0 -8 5 -15 10 -15 6 0 10 -16 10 -35 0 -28 -4 -35 -19 -35 -17 0 -20 8 -23 48 l-3 47 -67 2 c-54 2 -68 0 -68 -12 0 -8 5 -15 10 -15 6 0 10 -16 10 -35 0 -28 -4 -35 -20 -35 -17 0 -20 7 -20 50 0 49 -1 50 -30 50 -20 0 -30 -5 -30 -15 0 -8 5 -15 10 -15 6 0 10 -16 10 -35 0 -24 -5 -35 -15 -35 -11 0 -15 11 -15 39 0 21 -6 43 -12 48 -17 13 -238 15 -238 2z"/>
<path d="M3942 987 c-10 -12 -15 -39 -13 -69 2 -29 32 -50 63 -44 21 4 28 2 28 -9 0 -15 -7 -18 -50 -19 -42 -2 -31 -31 13 -34 59 -5 77 17 77 95 0 35 4 63 10 63 6 0 10 6 10 14 0 19 -123 21 -138 3z m73 -28 c11 -16 -4 -59 -20 -59 -21 0 -35 31 -24 52 11 20 34 24 44 7z"/>
</g>
</svg>