<svg xmlns="http://www.w3.org/2000/svg" version="1.0" width="1536px" height="378px" viewBox="0 0 1536.000000 378.000000" preserveAspectRatio="xMidYMid meet">
 <style>svg * { fill: rgb(255, 255, 255); }
</style> 


<g transform="translate(0.000000,378.000000) scale(0.100000,-0.100000)" stroke="none" style="fill: rgb(255, 255, 255);">
<path d="M13848 3538 c-2 -15 -11 -24 -25 -26 -18 -3 -23 -10 -23 -32 0 -22 5 -29 23 -32 32 -4 27 -23 -13 -50 -19 -13 -39 -34 -45 -46 -7 -15 -18 -22 -37 -22 -24 0 -28 -4 -28 -30 0 -16 4 -30 9 -30 8 0 51 -64 51 -76 0 -2 -18 -4 -39 -4 -50 0 -90 -32 -100 -79 l-6 -34 -37 31 -36 32 -67 -75 c-65 -72 -68 -75 -82 -55 -8 11 -20 20 -26 20 -9 0 -9 -2 0 -8 6 -4 15 -20 19 -36 l7 -29 77 83 76 83 42 -37 42 -38 0 31 c0 65 34 100 98 101 36 0 49 -5 73 -31 43 -47 35 -18 -11 37 -23 27 -43 59 -46 71 -3 12 -12 24 -20 27 -27 10 -16 36 16 36 18 0 30 5 30 13 0 18 39 53 68 62 30 9 32 65 2 65 -13 0 -20 7 -20 20 0 13 7 20 20 20 13 0 20 7 20 20 0 15 7 20 25 20 18 0 25 -5 25 -20 0 -13 7 -20 20 -20 12 0 20 -7 20 -16 0 -9 -9 -18 -20 -21 -25 -7 -29 -63 -4 -63 21 0 77 -57 69 -70 -4 -6 6 -10 24 -10 24 0 31 -4 31 -20 0 -11 -3 -20 -8 -20 -4 0 -13 -14 -20 -30 -8 -17 -29 -49 -48 -71 -41 -50 -45 -73 -5 -30 57 61 154 32 167 -50 5 -32 9 -37 20 -28 11 9 18 8 28 0 12 -10 13 -9 9 7 -7 29 12 35 49 15 26 -13 29 -18 15 -21 -17 -4 -18 -5 -2 -22 12 -14 25 -17 45 -13 23 4 32 0 46 -22 13 -21 15 -28 5 -34 -10 -6 -8 -10 4 -15 15 -5 16 -1 11 29 -6 28 -3 37 10 42 9 3 25 1 35 -5 10 -7 24 -12 31 -12 25 0 -43 29 -70 30 -75 1 -92 5 -92 22 0 9 -16 26 -36 38 l-35 22 -23 -21 c-29 -28 -33 -27 -41 9 -9 41 -49 70 -97 70 -28 0 -39 4 -35 13 20 46 34 67 45 67 7 0 12 13 12 30 0 26 -4 30 -28 30 -20 0 -30 7 -40 28 -6 16 -28 36 -48 45 -38 19 -41 40 -6 45 32 5 31 59 0 64 -15 2 -24 11 -26 26 -3 18 -10 22 -37 22 -27 0 -34 -4 -37 -22z"/>
<path d="M13172 3038 c-7 -7 -12 -23 -12 -37 0 -13 -8 -34 -17 -45 -18 -21 -18 -21 4 -2 12 10 23 32 25 49 4 37 30 47 58 22 10 -9 27 -15 37 -12 15 4 15 5 -3 6 -12 0 -27 8 -34 16 -15 18 -42 19 -58 3z"/>
<path d="M14526 3034 c-9 -8 -16 -21 -16 -27 0 -6 7 -1 16 11 28 40 80 19 70 -30 -4 -18 3 -30 32 -52 l37 -30 -32 35 c-23 24 -31 41 -27 55 11 43 -48 71 -80 38z"/>
<path d="M13303 3023 c9 -2 25 -2 35 0 9 3 1 5 -18 5 -19 0 -27 -2 -17 -5z"/>
<path d="M14288 2963 c7 -3 16 -2 19 1 4 3 -2 6 -13 5 -11 0 -14 -3 -6 -6z"/>
<path d="M13094 2918 l-19 -23 23 19 c21 18 27 26 19 26 -2 0 -12 -10 -23 -22z"/>
<path d="M14520 2930 c0 -5 5 -10 10 -10 6 0 10 5 10 10 0 6 -4 10 -10 10 -5 0 -10 -4 -10 -10z"/>
<path d="M14385 2910 c-3 -5 3 -10 15 -10 12 0 18 5 15 10 -3 6 -10 10 -15 10 -5 0 -12 -4 -15 -10z"/>
<path d="M14678 2903 c7 -3 16 -2 19 1 4 3 -2 6 -13 5 -11 0 -14 -3 -6 -6z"/>
<path d="M14310 2889 c0 -5 5 -7 10 -4 6 3 10 8 10 11 0 2 -4 4 -10 4 -5 0 -10 -5 -10 -11z"/>
<path d="M13074 2869 c7 -33 -9 -39 -113 -39 l-73 0 4 -61 c3 -38 10 -64 19 -70 19 -12 29 -11 29 1 0 6 -6 10 -14 10 -17 0 -34 86 -20 100 11 11 197 15 215 5 8 -5 4 3 -7 16 -12 13 -27 33 -33 44 -11 18 -12 18 -7 -6z"/>
<path d="M14702 2870 c0 -14 2 -19 5 -12 2 6 2 18 0 25 -3 6 -5 1 -5 -13z"/>
<path d="M14467 2844 c-8 -8 1 -24 14 -24 5 0 9 7 9 15 0 15 -12 20 -23 9z"/>
<path d="M600 2829 c-85 -4 -180 -13 -210 -18 -30 -5 -81 -13 -113 -17 l-57 -6 0 -1194 0 -1194 23 -5 c48 -11 448 -35 580 -35 142 0 412 22 477 39 19 5 55 12 80 16 90 13 298 85 396 136 106 55 158 93 247 179 123 119 229 293 277 452 12 40 26 87 31 103 43 141 53 469 20 641 -67 352 -238 590 -543 758 -50 27 -159 68 -238 89 -227 61 -530 79 -970 56z m645 -419 c304 -76 455 -220 533 -510 26 -97 25 -425 -2 -530 -51 -199 -133 -329 -282 -449 -49 -40 -176 -91 -299 -120 -64 -16 -303 -26 -378 -17 l-57 7 0 809 0 809 33 5 c73 13 109 14 252 11 83 -2 173 -9 200 -15z"/>
<path d="M14710 2826 c0 -6 -3 -21 -6 -33 -5 -18 -3 -21 15 -16 16 4 20 11 16 24 -6 19 3 24 35 19 26 -4 29 -22 9 -59 -25 -47 -24 -48 11 -47 25 1 27 3 15 12 -20 15 -19 31 2 43 14 8 16 14 7 38 -8 25 -14 28 -57 29 -28 1 -47 -3 -47 -10z"/>
<path d="M14270 2820 c0 -5 0 -13 1 -16 0 -4 -5 -11 -13 -15 -10 -7 -9 -9 5 -9 12 0 17 8 17 25 0 14 -2 25 -5 25 -3 0 -5 -4 -5 -10z"/>
<path d="M14580 2821 c0 -5 5 -13 10 -16 6 -3 10 -2 10 4 0 5 -4 13 -10 16 -5 3 -10 2 -10 -4z"/>
<path d="M14375 2790 c-3 -5 -1 -10 4 -10 6 0 11 5 11 10 0 6 -2 10 -4 10 -3 0 -8 -4 -11 -10z"/>
<path d="M13431 2774 c0 -11 3 -14 6 -6 3 7 2 16 -1 19 -3 4 -6 -2 -5 -13z"/>
<path d="M13705 2742 c-1 -2 -43 -12 -91 -24 -130 -30 -124 -39 8 -11 159 33 367 33 525 0 62 -13 110 -20 108 -16 -3 3 -21 10 -40 13 -19 4 -35 11 -35 16 0 4 -20 8 -45 8 -24 0 -50 4 -57 8 -12 8 -366 13 -373 6z"/>
<path d="M14485 2730 c4 -6 11 -8 16 -5 14 9 11 15 -7 15 -8 0 -12 -5 -9 -10z"/>
<path d="M12920 2645 c0 -25 -4 -35 -16 -35 -8 0 -29 -13 -45 -29 -22 -23 -29 -39 -29 -69 0 -22 -8 -54 -17 -72 -18 -30 -18 -31 5 -50 12 -10 27 -20 33 -22 12 -4 -5 -84 -23 -105 -6 -7 -28 -13 -50 -13 -37 0 -39 -2 -36 -27 2 -22 9 -29 30 -31 15 -2 36 2 48 8 11 6 20 8 20 5 0 -2 -22 -44 -50 -92 -58 -101 -104 -216 -131 -328 -19 -81 -40 -244 -38 -300 2 -50 18 40 19 105 1 67 29 201 66 306 115 336 381 614 718 751 45 18 72 33 61 33 -28 0 -198 -78 -268 -123 -32 -21 -63 -34 -69 -31 -6 4 -8 3 -5 -4 4 -5 -21 -33 -55 -60 -35 -28 -103 -92 -152 -143 -88 -90 -140 -125 -170 -113 -33 13 -17 34 24 34 38 0 42 3 60 43 11 23 20 52 20 65 0 13 5 33 11 45 9 18 9 20 -2 10 -18 -18 -44 -16 -60 3 -11 14 -10 19 6 33 15 12 19 26 17 54 -4 47 18 84 62 102 29 12 32 17 28 49 -5 46 -12 46 -12 1z"/>
<path d="M14346 2647 c380 -154 656 -474 752 -872 26 -107 32 -161 33 -296 0 -359 -158 -704 -431 -937 -146 -125 -329 -220 -518 -268 -132 -35 -364 -44 -502 -20 -523 91 -934 498 -1025 1014 -8 48 -15 108 -15 135 0 26 -4 47 -9 47 -12 0 -4 -103 15 -202 98 -510 508 -914 1018 -1003 114 -19 328 -19 442 0 384 67 725 320 900 668 99 196 138 361 137 577 -1 237 -61 454 -183 658 l-32 53 39 -7 c29 -4 42 -2 52 10 21 25 6 44 -36 48 -32 3 -41 8 -55 38 -27 57 -27 84 0 88 33 5 50 46 29 70 -10 10 -17 33 -17 51 0 17 -7 45 -15 60 -14 28 -68 61 -98 61 -9 0 -17 5 -19 11 -2 7 -9 5 -17 -5 -12 -14 -10 -16 14 -16 71 0 133 -62 121 -123 -5 -23 -1 -33 14 -44 16 -11 18 -18 10 -34 -12 -21 -40 -25 -57 -8 -16 16 13 -109 32 -138 10 -14 27 -23 52 -25 41 -3 55 -23 24 -33 -33 -10 -75 19 -188 133 -60 59 -125 122 -146 139 -86 73 -334 203 -384 203 -10 0 18 -15 63 -33z"/>
<path d="M11600 2655 c-643 -106 -1026 -587 -997 -1249 26 -574 352 -951 911 -1053 130 -24 425 -23 571 1 101 16 244 55 271 73 9 6 1 61 -25 201 -21 105 -40 194 -43 197 -3 3 -23 -1 -45 -9 -103 -36 -208 -50 -373 -51 -143 0 -176 3 -245 23 -186 54 -325 166 -403 323 -66 136 -77 188 -77 389 0 153 3 185 23 255 68 235 231 400 462 465 154 43 367 37 548 -17 48 -14 93 -26 101 -27 10 -1 28 55 65 196 27 108 48 200 44 203 -13 13 -156 56 -237 71 -119 23 -439 28 -551 9z"/>
<path d="M13078 2643 c7 -3 16 -2 19 1 4 3 -2 6 -13 5 -11 0 -14 -3 -6 -6z"/>
<path d="M8490 1923 c0 -588 3 -736 15 -818 51 -340 192 -562 430 -678 145 -71 334 -105 527 -94 517 30 804 306 868 837 6 50 10 368 10 777 l0 693 -255 0 -254 0 -3 -747 c-4 -730 -4 -750 -25 -825 -59 -210 -170 -311 -358 -325 -48 -4 -90 0 -135 11 -145 37 -230 133 -282 321 -22 79 -22 90 -26 823 l-3 742 -254 0 -255 0 0 -717z"/>
<path d="M13715 2610 c-4 -17 -5 -34 -2 -36 2 -3 7 10 11 27 8 42 0 50 -9 9z"/>
<path d="M13800 2560 c0 -59 3 -80 13 -80 9 0 12 14 10 48 -1 26 -2 62 -2 80 -1 17 -5 32 -11 32 -6 0 -10 -33 -10 -80z"/>
<path d="M13966 2593 c-4 -27 -10 -63 -13 -80 -3 -20 -1 -33 5 -33 6 0 13 15 16 33 12 82 15 127 7 127 -5 0 -12 -21 -15 -47z"/>
<path d="M14023 2629 c25 -14 23 -69 -3 -76 -18 -5 -18 -8 11 -49 37 -55 59 -59 23 -5 -24 37 -25 41 -10 63 21 30 20 55 -3 68 -25 13 -42 13 -18 -1z"/>
<path d="M13603 2612 c-7 -5 6 -33 38 -82 27 -41 49 -70 49 -63 0 6 3 19 7 29 4 11 3 15 -5 10 -6 -4 -24 17 -44 53 -20 36 -38 57 -45 53z"/>
<path d="M14149 2586 c-10 -20 -8 -31 10 -59 11 -19 21 -44 21 -56 0 -12 4 -19 10 -16 16 10 11 48 -10 80 -23 34 -26 61 -7 68 9 4 9 6 -1 6 -7 1 -17 -10 -23 -23z"/>
<path d="M13504 2582 c-14 -10 37 -160 53 -155 10 4 10 10 2 26 -7 11 -19 46 -28 78 -10 36 -20 55 -27 51z"/>
<path d="M13701 2544 c0 -11 3 -14 6 -6 3 7 2 16 -1 19 -3 4 -6 -2 -5 -13z"/>
<path d="M14282 2498 c-28 -78 -29 -82 -18 -88 5 -3 13 6 17 20 3 14 16 49 28 78 14 36 17 52 8 52 -6 0 -22 -28 -35 -62z"/>
<path d="M13412 2485 c35 -65 31 -66 -67 -30 -38 13 -70 23 -72 21 -7 -6 9 -36 17 -31 4 2 42 -7 84 -21 43 -15 79 -24 82 -21 6 6 -58 137 -67 137 -4 0 6 -25 23 -55z"/>
<path d="M14393 2442 c-33 -53 -39 -70 -30 -81 10 -12 13 -11 16 4 4 21 62 119 73 123 9 4 1 22 -10 22 -4 0 -26 -31 -49 -68z"/>
<path d="M14511 2442 c15 -44 -4 -90 -45 -108 -30 -13 -30 -13 -6 -13 29 0 52 15 68 46 17 32 15 58 -8 84 l-20 24 11 -33z"/>
<path d="M13180 2424 c0 -11 73 -104 78 -99 4 4 -68 105 -75 105 -2 0 -3 -3 -3 -6z"/>
<path d="M13313 2381 c12 -27 25 -47 29 -45 6 4 -39 94 -47 94 -2 0 6 -22 18 -49z"/>
<path d="M13787 2420 c-163 -20 -289 -65 -416 -150 -181 -122 -307 -283 -374 -480 -40 -117 -50 -197 -44 -349 6 -154 23 -226 87 -359 50 -104 86 -157 169 -244 167 -178 382 -274 636 -285 254 -11 488 72 670 239 356 326 408 870 120 1258 -90 122 -259 252 -400 307 -139 54 -314 79 -448 63z m77 -26 c14 -14 16 -67 16 -440 0 -413 -1 -425 -20 -444 -20 -20 -30 -21 -451 -18 -369 3 -431 5 -439 18 -29 45 16 246 85 387 70 142 164 251 305 355 144 105 454 193 504 142z m198 2 c393 -76 707 -418 745 -812 9 -99 33 -94 -457 -94 -360 0 -419 2 -438 16 l-22 15 0 434 c0 403 1 435 18 444 24 14 68 13 154 -3z m-200 -933 c17 -15 18 -42 18 -443 0 -499 7 -467 -102 -455 -385 45 -697 320 -794 703 -29 115 -32 187 -6 201 11 7 172 11 441 11 381 0 426 -2 443 -17z m929 7 c22 -12 24 -47 8 -136 -60 -335 -291 -611 -600 -720 -74 -26 -200 -53 -251 -54 -59 0 -58 -9 -58 462 0 399 1 432 18 444 22 17 851 20 883 4z"/>
<path d="M13221 1884 c0 -11 3 -14 6 -6 3 7 2 16 -1 19 -3 4 -6 -2 -5 -13z"/>
<path d="M13320 1710 c0 -5 5 -10 11 -10 5 0 7 5 4 10 -3 6 -8 10 -11 10 -2 0 -4 -4 -4 -10z"/>
<path d="M14288 2223 c7 -3 16 -2 19 1 4 3 -2 6 -13 5 -11 0 -14 -3 -6 -6z"/>
<path d="M14496 1785 c4 -8 11 -15 16 -15 6 0 5 6 -2 15 -7 8 -14 15 -16 15 -2 0 -1 -7 2 -15z"/>
<path d="M14538 1726 c-2 -19 -1 -43 3 -53 5 -11 8 2 8 35 1 59 -5 69 -11 18z"/>
<path d="M14243 1705 c0 -22 2 -30 4 -17 2 12 2 30 0 40 -3 9 -5 -1 -4 -23z"/>
<path d="M14313 1705 c0 -22 2 -30 4 -17 2 12 2 30 0 40 -3 9 -5 -1 -4 -23z"/>
<path d="M14403 1700 c0 -25 2 -35 4 -22 2 12 2 32 0 45 -2 12 -4 2 -4 -23z"/>
<path d="M14243 1600 c0 -30 2 -43 4 -27 2 15 2 39 0 55 -2 15 -4 2 -4 -28z"/>
<path d="M14313 1600 c0 -30 2 -43 4 -27 2 15 2 39 0 55 -2 15 -4 2 -4 -28z"/>
<path d="M14403 1600 c0 -30 2 -43 4 -27 2 15 2 39 0 55 -2 15 -4 2 -4 -28z"/>
<path d="M14016 1615 c-9 -9 -16 -21 -16 -28 0 -6 9 -1 21 12 24 26 20 40 -5 16z"/>
<path d="M14542 1590 c0 -39 1 -41 7 -15 6 28 7 29 19 10 6 -11 12 -15 12 -9 0 7 -9 22 -20 35 l-19 24 1 -45z"/>
<path d="M14108 1553 c6 -2 18 -2 25 0 6 3 1 5 -13 5 -14 0 -19 -2 -12 -5z"/>
<path d="M13357 1343 c-12 -12 -7 -19 12 -19 15 0 17 3 9 13 -12 15 -13 15 -21 6z"/>
<path d="M13288 1287 c15 -18 13 -89 -1 -80 -7 4 -6 -1 2 -10 7 -9 11 -22 9 -29 -3 -7 -2 -22 3 -33 l8 -20 1 20 c1 11 3 50 4 87 1 57 -2 68 -17 72 -13 3 -15 1 -9 -7z"/>
<path d="M13340 1260 c0 -5 5 -10 11 -10 5 0 7 5 4 10 -3 6 -8 10 -11 10 -2 0 -4 -4 -4 -10z"/>
<path d="M13250 1250 c0 -5 7 -7 15 -4 8 4 15 8 15 10 0 2 -7 4 -15 4 -8 0 -15 -4 -15 -10z"/>
<path d="M13448 1163 c7 -3 16 -2 19 1 4 3 -2 6 -13 5 -11 0 -14 -3 -6 -6z"/>
<path d="M13716 1163 c5 -5 12 -12 16 -18 4 -6 8 -2 8 8 0 9 -7 17 -17 17 -9 0 -12 -3 -7 -7z"/>
<path d="M13612 1090 c0 -14 2 -19 5 -12 2 6 2 18 0 25 -3 6 -5 1 -5 -13z"/>
<path d="M13538 963 c7 -3 16 -2 19 1 4 3 -2 6 -13 5 -11 0 -14 -3 -6 -6z"/>
<path d="M13570 880 c8 -5 20 -10 25 -10 6 0 3 5 -5 10 -8 5 -19 10 -25 10 -5 0 -3 -5 5 -10z"/>
<path d="M13604 810 c0 -13 4 -16 10 -10 7 7 7 13 0 20 -6 6 -10 3 -10 -10z"/>
<path d="M13558 753 c7 -3 16 -2 19 1 4 3 -2 6 -13 5 -11 0 -14 -3 -6 -6z"/>
<path d="M14570 1245 c0 -8 4 -15 10 -15 5 0 7 7 4 15 -4 8 -8 15 -10 15 -2 0 -4 -7 -4 -15z"/>
<path d="M14000 1240 c0 -5 5 -10 10 -10 6 0 10 5 10 10 0 6 -4 10 -10 10 -5 0 -10 -4 -10 -10z"/>
<path d="M14331 1154 c0 -11 3 -14 6 -6 3 7 2 16 -1 19 -3 4 -6 -2 -5 -13z"/>
<path d="M14078 873 c7 -3 16 -2 19 1 4 3 -2 6 -13 5 -11 0 -14 -3 -6 -6z"/>
<path d="M14272 860 c0 -14 2 -19 5 -12 2 6 2 18 0 25 -3 6 -5 1 -5 -13z"/>
<path d="M14186 853 c-6 -14 -5 -15 5 -6 7 7 10 15 7 18 -3 3 -9 -2 -12 -12z"/>
<path d="M14820 2399 c0 -5 5 -7 10 -4 6 3 10 8 10 11 0 2 -4 4 -10 4 -5 0 -10 -5 -10 -11z"/>
<path d="M13116 2303 c21 -27 43 -51 49 -55 16 -12 63 -9 71 4 4 7 3 8 -5 4 -23 -15 -57 4 -91 49 -18 25 -40 45 -48 45 -9 0 0 -17 24 -47z"/>
<path d="M14624 2335 c-15 -12 -16 -14 -2 -9 16 5 16 3 7 -25 -6 -17 -14 -31 -17 -31 -4 0 -7 -10 -8 -22 0 -13 -4 -31 -9 -42 -6 -14 -5 -18 5 -14 11 3 60 125 60 150 0 12 -14 10 -36 -7z"/>
<path d="M14543 2292 c-18 -9 -33 -19 -33 -23 0 -5 15 0 33 9 42 22 41 21 36 26 -2 2 -19 -3 -36 -12z"/>
<path d="M14735 2212 c-17 -15 -42 -37 -58 -48 -15 -13 -25 -28 -22 -36 4 -10 22 2 63 39 32 30 63 51 71 48 11 -4 12 -3 1 10 -16 20 -20 19 -55 -13z"/>
<path d="M5279 2186 c-3 -3 -36 -10 -74 -16 -272 -43 -503 -207 -625 -446 -49 -95 -75 -179 -95 -311 -19 -129 -19 -193 0 -313 20 -125 37 -176 91 -287 113 -227 288 -361 574 -440 83 -22 377 -26 455 -4 204 55 332 122 444 232 123 121 186 237 242 444 22 79 19 413 -4 490 -48 161 -111 280 -198 378 -39 45 -152 137 -167 137 -6 0 -12 3 -14 8 -4 9 -124 67 -158 77 -14 3 -34 10 -45 15 -44 20 -198 40 -307 40 -63 0 -117 -2 -119 -4z m250 -407 c90 -39 166 -151 203 -298 25 -103 25 -327 -1 -427 -39 -150 -100 -240 -197 -289 -52 -26 -70 -30 -144 -30 -70 0 -94 4 -134 24 -65 32 -125 93 -158 161 -37 75 -48 114 -64 227 -15 101 -15 131 -5 213 41 315 172 462 396 444 33 -3 80 -14 104 -25z"/>
<path d="M7300 2170 c-228 -42 -389 -125 -532 -272 -43 -43 -78 -83 -78 -88 0 -5 -7 -15 -15 -23 -24 -24 -82 -147 -109 -231 -67 -203 -57 -484 24 -686 54 -136 141 -251 253 -334 116 -86 201 -125 357 -163 105 -25 428 -25 545 0 70 16 169 43 186 53 3 2 0 43 -8 91 -7 48 -20 132 -28 186 -8 54 -17 103 -20 108 -4 5 -21 2 -42 -6 -20 -8 -89 -22 -154 -30 -101 -12 -129 -12 -203 0 -238 38 -379 193 -401 440 -26 302 130 521 396 556 97 13 283 -1 344 -27 20 -8 38 -14 40 -12 1 2 10 39 20 83 9 44 23 107 31 140 22 101 35 168 32 170 -9 6 -107 29 -198 45 -132 24 -310 24 -440 0z"/>
<path d="M14818 2156 c5 -42 -15 -71 -63 -92 l-30 -13 31 -1 c63 0 107 75 71 124 -12 16 -13 14 -9 -18z"/>
<path d="M12941 2148 c8 -14 14 -18 16 -11 4 10 12 9 39 -2 19 -8 34 -12 34 -10 0 2 13 0 30 -5 17 -5 32 -5 35 0 3 5 -14 14 -37 20 -24 6 -59 15 -78 21 -49 13 -52 12 -39 -13z"/>
<path d="M2590 1587 c0 -573 5 -673 40 -798 16 -61 61 -165 85 -198 31 -43 136 -142 176 -165 99 -57 161 -70 319 -70 138 0 149 1 227 31 127 48 231 126 294 218 13 19 29 35 34 35 11 0 35 -155 35 -217 l0 -33 236 0 237 0 -6 83 c-4 45 -7 441 -7 880 l0 797 -270 0 -269 0 -3 -572 -3 -573 -33 -58 c-66 -118 -140 -161 -272 -161 -120 0 -183 36 -233 134 -45 90 -47 122 -47 690 l0 540 -270 0 -270 0 0 -563z"/>
<path d="M12975 2094 c9 -17 26 -41 37 -55 l20 -24 -19 35 c-10 19 -27 44 -37 55 -19 20 -19 20 -1 -11z"/>
<path d="M12847 2044 c-4 -4 26 -26 66 -49 49 -29 74 -39 79 -31 4 6 2 13 -5 15 -7 2 -37 19 -68 37 -61 37 -62 37 -72 28z"/>
<path d="M12796 1944 c-5 -14 -4 -15 9 -4 17 14 19 20 6 20 -5 0 -12 -7 -15 -16z"/>
<path d="M14871 1949 c-36 -14 -51 -39 -49 -84 1 -36 2 -37 5 -8 8 60 82 98 131 68 l27 -17 -20 20 c-25 26 -63 34 -94 21z"/>
<path d="M12771 1878 c-6 -75 95 -122 145 -67 9 10 12 19 6 19 -6 0 -14 -4 -17 -10 -11 -17 -71 -11 -98 10 -14 11 -28 30 -30 43 -3 13 -5 15 -6 5z"/>
<path d="M14991 1854 c0 -11 3 -14 6 -6 3 7 2 16 -1 19 -3 4 -6 -2 -5 -13z"/>
<path d="M12732 1730 c3 -10 97 -40 156 -50 1 0 2 6 2 13 0 7 -25 17 -64 25 -35 6 -71 15 -81 18 -12 5 -16 3 -13 -6z"/>
<path d="M14885 1730 c17 -4 39 -8 50 -8 16 0 15 2 -5 8 -14 4 -36 8 -50 8 -22 0 -22 -1 5 -8z"/>
<path d="M14980 1711 l25 -7 -32 -17 c-18 -10 -33 -16 -33 -13 0 2 -13 -8 -30 -22 -16 -15 -30 -33 -30 -40 0 -10 4 -10 16 3 9 8 45 32 81 53 57 33 62 38 41 43 -13 4 -32 7 -43 7 -15 0 -14 -2 5 -7z"/>
<path d="M12781 1604 c0 -11 3 -14 6 -6 3 7 2 16 -1 19 -3 4 -6 -2 -5 -13z"/>
<path d="M12706 1562 c-3 -5 33 -13 79 -18 62 -7 85 -6 85 2 0 17 -154 32 -164 16z"/>
<path d="M14890 1528 c0 -10 21 -12 80 -10 44 2 80 8 80 13 0 5 -36 9 -80 9 -57 0 -80 -4 -80 -12z"/>
<path d="M15052 1480 c0 -14 2 -19 5 -12 2 6 2 18 0 25 -3 6 -5 1 -5 -13z"/>
<path d="M12700 1440 c0 -6 35 -10 85 -10 50 0 85 4 85 10 0 6 -35 10 -85 10 -50 0 -85 -4 -85 -10z"/>
<path d="M14905 1395 c-14 -13 -25 -29 -25 -34 0 -6 11 1 25 14 28 29 79 33 113 9 12 -8 22 -11 22 -5 0 18 -44 41 -78 41 -22 0 -41 -8 -57 -25z"/>
<path d="M12712 1330 c0 -14 2 -19 5 -12 2 6 2 18 0 25 -3 6 -5 1 -5 -13z"/>
<path d="M12810 1309 c-25 -5 -55 -12 -67 -15 -16 -3 -23 -12 -23 -27 0 -18 2 -19 10 -7 5 9 36 19 76 25 37 6 69 16 72 23 4 14 -4 14 -68 1z"/>
<path d="M14880 1302 c0 -15 44 -50 72 -57 36 -9 87 19 88 49 0 5 -8 2 -18 -7 -26 -24 -93 -22 -120 3 -12 12 -22 17 -22 12z"/>
<path d="M14846 1184 c-9 -22 -8 -24 9 -18 8 3 42 -4 75 -15 34 -12 66 -18 72 -15 8 5 -115 57 -148 64 -1 0 -5 -7 -8 -16z"/>
<path d="M12876 1176 c-18 -9 -24 -15 -15 -18 10 -3 6 -21 -19 -78 -18 -40 -31 -74 -29 -76 2 -2 13 -1 26 3 13 3 18 9 12 13 -8 4 -3 25 15 66 29 66 45 104 41 103 -1 0 -15 -6 -31 -13z"/>
<path d="M12775 1135 c-16 -7 -23 -14 -15 -14 8 0 26 6 40 14 32 18 14 18 -25 0z"/>
<path d="M12910 1044 c-48 -27 -46 -27 13 -4 20 8 37 18 37 22 0 10 2 11 -50 -18z"/>
<path d="M14800 1057 c1 -13 140 -81 148 -72 9 9 -10 22 -80 53 -42 19 -68 26 -68 19z"/>
<path d="M12899 941 c-30 -30 -36 -55 -19 -81 8 -12 10 -9 10 13 0 35 48 84 88 90 21 3 18 4 -11 6 -30 1 -45 -5 -68 -28z"/>
<path d="M14721 925 c-17 -20 -31 -41 -31 -47 0 -6 10 4 23 23 39 58 119 50 151 -15 10 -20 16 -25 16 -13 0 26 -27 74 -45 81 -43 16 -83 6 -114 -29z"/>
<path d="M13041 900 c-2 -37 -31 -69 -76 -85 l-40 -14 37 -1 c24 0 46 8 63 23 22 19 26 29 22 62 -2 22 -4 29 -6 15z"/>
<path d="M14671 805 c0 -5 8 -26 19 -45 11 -19 19 -30 19 -25 0 6 -8 26 -19 45 -11 19 -19 31 -19 25z"/>
<path d="M14821 801 c-8 -5 -9 -11 -3 -15 5 -3 12 1 16 9 6 17 6 18 -13 6z"/>
<path d="M13096 721 c-32 -32 -54 -61 -49 -64 12 -8 126 104 116 114 -5 5 -35 -18 -67 -50z"/>
<path d="M13020 742 c-19 -15 -21 -22 -12 -38 10 -17 11 -17 12 -2 0 10 10 26 22 38 27 25 8 27 -22 2z"/>
<path d="M14575 751 c-5 -9 144 -75 151 -68 8 7 -8 37 -16 32 -5 -3 -20 -1 -35 5 -24 9 -26 12 -14 28 13 15 12 16 -3 3 -13 -10 -25 -11 -48 -3 -16 6 -32 7 -35 3z"/>
<path d="M13292 557 c-22 -40 -35 -75 -29 -78 5 -4 25 23 44 60 20 36 40 69 45 72 5 3 3 9 -6 12 -11 4 -25 -14 -54 -66z"/>
<path d="M14376 603 c-4 -5 52 -119 70 -141 1 -2 13 -1 26 4 22 7 22 7 3 14 -11 4 -34 33 -50 65 -32 60 -38 68 -49 58z"/>
<path d="M13405 578 c32 -51 3 -120 -55 -131 -21 -4 -19 -5 8 -6 73 -3 110 90 56 140 l-27 24 18 -27z"/>
<path d="M14250 539 c0 -6 12 -43 27 -81 19 -48 31 -67 41 -63 7 3 19 5 25 6 7 0 3 4 -8 8 -13 6 -29 33 -45 75 -22 60 -40 84 -40 55z"/>
<path d="M13495 464 c-21 -62 -24 -78 -13 -85 10 -6 15 1 19 27 3 20 10 39 15 43 5 3 10 13 10 21 1 8 5 27 9 43 4 16 3 27 -3 27 -5 0 -22 -34 -37 -76z"/>
<path d="M14153 513 c-8 -3 -9 -11 -3 -26 5 -12 17 -48 26 -80 9 -33 20 -55 25 -50 12 12 -33 161 -48 156z"/>
<path d="M14045 433 c8 -75 15 -103 27 -103 5 0 7 15 4 33 -3 17 -8 53 -11 80 -9 69 -28 60 -20 -10z"/>
<path d="M13731 463 c-12 -10 -24 -34 -27 -54 -5 -28 -1 -41 17 -61 13 -15 35 -29 49 -33 23 -5 23 -5 5 6 -33 19 -45 41 -45 81 0 25 7 45 20 58 25 25 10 27 -19 3z"/>
<path d="M13836 466 c21 -15 30 -14 19 3 -3 6 -14 11 -23 11 -13 0 -13 -2 4 -14z"/>
<path d="M13926 471 c-9 -14 15 -161 25 -161 5 0 6 30 3 68 -4 37 -7 75 -7 85 -1 18 -12 23 -21 8z"/>
</g>
</svg>