<svg xmlns="http://www.w3.org/2000/svg" version="1.0" width="500px" height="98px" viewBox="0 0 500.000000 98.000000" preserveAspectRatio="xMidYMid meet">
 <style>svg * { fill: rgb(254, 254, 254); }
</style> 


<g transform="translate(0.000000,98.000000) scale(0.100000,-0.100000)" stroke="none" style="fill: rgb(254, 254, 254);">
<path d="M3817 910 c-96 -24 -200 -107 -245 -196 -50 -99 -51 -219 -2 -323 37 -78 96 -136 178 -174 56 -26 82 -32 158 -35 188 -9 326 69 396 224 18 40 23 67 23 144 0 83 -3 102 -27 150 -43 87 -90 135 -175 177 -70 34 -83 38 -172 40 -53 1 -113 -2 -134 -7z m218 -159 c51 -23 101 -79 114 -128 44 -158 -56 -296 -214 -295 -142 0 -229 85 -229 222 0 99 49 175 134 209 42 17 151 12 195 -8z"/>
<path d="M4518 906 c-93 -36 -138 -98 -138 -190 0 -106 45 -158 200 -236 103 -51 120 -65 120 -100 0 -91 -162 -83 -278 14 -16 15 -33 26 -36 26 -4 0 -5 -39 -4 -86 l3 -87 60 -31 c51 -25 74 -31 151 -34 77 -4 98 -1 142 18 108 47 154 148 120 264 -18 58 -77 112 -174 157 -93 44 -144 82 -144 108 0 62 116 70 228 16 l72 -34 0 78 0 79 -52 23 c-66 28 -213 37 -270 15z"/>
<path d="M1762 549 l3 -361 80 0 80 0 3 361 2 361 -85 0 -85 0 2 -361z"/>
<path d="M1987 898 c15 -19 244 -301 260 -320 13 -15 0 -35 -134 -198 -81 -99 -149 -184 -151 -188 -1 -4 44 -6 100 -6 l103 2 98 118 c53 66 100 120 105 121 4 1 51 -53 105 -120 l97 -122 203 3 202 4 95 119 c52 65 98 119 101 119 3 0 44 -49 92 -108 47 -60 93 -114 101 -121 13 -11 216 -23 216 -13 0 2 -66 84 -147 183 -82 99 -149 183 -151 188 -1 4 58 83 133 175 74 92 135 170 135 172 0 2 -46 4 -102 4 l-103 -1 -85 -109 c-47 -60 -87 -109 -90 -109 -3 0 -43 49 -90 109 l-85 109 -108 1 -109 0 64 -77 c171 -207 218 -265 218 -271 0 -4 -66 -87 -145 -185 l-146 -177 -148 181 -149 181 131 162 c71 88 135 167 140 174 7 9 -13 12 -94 12 l-104 0 -79 -100 c-44 -55 -84 -104 -91 -110 -7 -6 -38 25 -99 100 l-88 110 -105 0 c-83 0 -103 -3 -96 -12z"/>
<path d="M1648 63 c6 -2 12 -18 12 -34 0 -17 4 -28 10 -24 5 3 6 13 3 22 -4 9 1 21 12 29 17 13 16 14 -16 13 -19 0 -28 -3 -21 -6z"/>
<path d="M1811 33 c1 -21 3 -30 6 -20 5 18 5 18 26 0 13 -12 17 -13 11 -3 -5 8 -9 24 -9 35 0 11 -8 21 -17 23 -15 3 -18 -3 -17 -35z"/>
<path d="M1980 40 c-7 -17 -10 -33 -6 -37 3 -3 6 -1 6 5 0 7 9 12 20 12 11 0 20 -5 20 -12 0 -6 3 -9 6 -6 5 6 -22 68 -30 68 -2 0 -9 -14 -16 -30z"/>
<path d="M2141 33 c1 -36 2 -37 8 -8 l6 29 21 -26 c25 -32 35 -27 33 16 -1 24 -3 26 -6 9 -5 -28 -19 -29 -35 -3 -19 30 -28 24 -27 -17z"/>
<path d="M2324 58 c-4 -6 0 -16 9 -23 22 -16 21 -22 0 -28 -16 -4 -16 -5 -1 -6 25 -2 32 18 13 39 -15 17 -15 19 2 23 15 4 16 5 1 6 -9 0 -20 -4 -24 -11z"/>
<path d="M2471 33 c1 -21 3 -30 6 -20 2 9 11 17 19 17 8 0 14 9 14 20 0 13 -7 20 -20 20 -17 0 -20 -6 -19 -37z m29 17 c0 -5 -4 -10 -10 -10 -5 0 -10 5 -10 10 0 6 5 10 10 10 6 0 10 -4 10 -10z"/>
<path d="M2629 54 c-16 -20 -1 -48 29 -52 27 -4 49 33 31 54 -15 19 -43 18 -60 -2z m54 -8 c7 -19 -18 -40 -38 -32 -15 6 -20 28 -8 39 12 12 41 7 46 -7z"/>
<path d="M2811 33 c1 -21 3 -30 6 -20 5 18 5 18 26 0 11 -10 17 -12 12 -4 -4 7 -8 23 -9 35 -1 11 -9 22 -18 24 -15 3 -18 -3 -17 -35z m29 17 c0 -5 -4 -10 -10 -10 -5 0 -10 5 -10 10 0 6 5 10 10 10 6 0 10 -4 10 -10z"/>
<path d="M2968 63 c6 -2 12 -16 12 -29 0 -13 4 -24 9 -24 6 0 8 9 6 20 -2 11 3 24 13 30 13 7 10 9 -18 9 -19 0 -29 -3 -22 -6z"/>
<path d="M3130 35 c0 -30 3 -35 23 -34 16 1 18 2 5 6 -21 5 -24 23 -5 23 8 0 7 4 -3 10 -13 9 -13 11 0 20 13 8 12 10 -2 10 -14 0 -18 -8 -18 -35z"/>
<path d="M3409 44 c-11 -31 -6 -39 26 -39 15 -1 21 4 18 12 -6 15 -23 17 -23 3 0 -5 -5 -10 -12 -10 -6 0 -4 7 5 18 19 21 22 42 7 42 -6 0 -15 -12 -21 -26z"/>
<path d="M3702 38 c-2 -34 1 -38 21 -37 15 1 17 3 5 6 -10 2 -18 17 -21 36 -4 31 -4 31 -5 -5z"/>
<path d="M3849 54 c-9 -11 -10 -20 -2 -32 15 -24 44 -27 59 -7 28 38 -27 75 -57 39z m51 -14 c0 -24 -26 -38 -42 -22 -16 16 -2 42 22 42 13 0 20 -7 20 -20z"/>
<path d="M4031 52 c-12 -23 4 -52 29 -52 25 0 36 19 20 33 -10 9 -12 8 -7 -6 5 -14 3 -18 -11 -15 -9 2 -18 13 -20 25 -2 16 3 23 20 26 23 4 23 4 1 6 -12 0 -27 -7 -32 -17z"/>
<path d="M4203 35 c0 -22 2 -30 4 -17 2 12 2 30 0 40 -3 9 -5 -1 -4 -23z"/>
<path d="M4330 57 c0 -7 6 -19 12 -25 10 -10 10 -15 -2 -22 -13 -8 -13 -10 2 -10 25 0 30 16 11 35 -14 14 -14 18 -2 26 11 7 11 9 -3 9 -10 0 -18 -6 -18 -13z"/>
<path d="M4482 60 c10 -6 15 -19 13 -30 -2 -11 0 -20 6 -20 5 0 9 11 9 24 0 13 6 27 13 29 6 3 -4 6 -23 6 -28 0 -31 -2 -18 -9z"/>
<path d="M4643 35 c0 -22 2 -30 4 -17 2 12 2 30 0 40 -3 9 -5 -1 -4 -23z"/>
<path d="M4769 54 c-17 -21 0 -48 32 -51 24 -2 24 -2 -1 5 -15 5 -25 15 -25 27 0 12 9 22 25 26 22 6 23 7 4 8 -12 1 -27 -6 -35 -15z"/>
<path d="M4956 62 c-3 -5 -10 -22 -16 -37 -10 -25 -9 -27 5 -15 13 11 21 11 36 2 19 -12 20 -12 3 20 -21 41 -21 41 -28 30z"/>
</g>
</svg>