<svg xmlns="http://www.w3.org/2000/svg" version="1.0" width="720px" height="375px" viewBox="0 0 720.000000 375.000000" preserveAspectRatio="xMidYMid meet">
 <style>svg * { fill: rgb(255, 255, 255); }
</style> 


<g transform="translate(0.000000,375.000000) scale(0.100000,-0.100000)" stroke="none" style="fill: rgb(255, 255, 255);">
<path d="M955 2547 c-3 -7 -4 -183 -3 -389 3 -362 4 -378 24 -404 38 -52 68 -66 144 -72 82 -6 90 0 90 60 0 44 -17 57 -73 55 -69 -2 -72 7 -75 238 l-3 205 69 0 c76 0 82 4 82 64 0 46 -16 56 -87 56 l-62 0 -3 98 -3 97 -48 3 c-33 2 -49 -1 -52 -11z"/>
<path d="M3645 2548 c-3 -7 -4 -204 -3 -438 l3 -425 50 0 c44 0 50 3 53 23 4 26 14 28 32 7 16 -20 103 -45 155 -45 75 0 146 28 191 75 62 64 79 123 79 275 0 110 -3 131 -24 178 -29 65 -95 125 -156 142 -65 18 -184 9 -230 -18 -20 -12 -38 -22 -40 -22 -3 0 -6 57 -7 128 l-3 127 -48 3 c-32 2 -49 -1 -52 -10z m373 -318 c55 -34 76 -95 76 -221 0 -93 -3 -112 -24 -154 -31 -59 -75 -85 -145 -85 -72 0 -115 25 -145 85 -22 44 -25 63 -25 160 0 95 3 116 23 153 31 59 72 82 147 82 43 0 70 -6 93 -20z"/>
<path d="M5535 2548 c-3 -7 -4 -204 -3 -438 l3 -425 50 0 50 0 3 93 3 92 66 71 c53 56 69 67 78 57 7 -7 58 -82 115 -165 l102 -153 59 0 c42 0 59 4 59 13 0 7 -58 98 -130 201 -71 103 -130 192 -130 198 0 6 50 62 110 125 61 63 109 120 107 127 -2 6 -28 12 -59 14 l-55 3 -154 -163 c-84 -90 -157 -164 -161 -166 -4 -2 -9 115 -10 260 l-3 263 -48 3 c-32 2 -49 -1 -52 -10z"/>
<path d="M5323 2518 c-1 -26 1 -29 7 -13 7 19 8 19 15 2 5 -13 11 -15 20 -7 9 8 14 7 18 -2 3 -7 6 2 6 20 1 37 -11 42 -27 10 l-11 -23 -7 23 c-9 32 -21 27 -21 -10z"/>
<path d="M5420 2518 c0 -23 3 -29 9 -19 5 8 7 20 4 28 -3 8 2 13 12 13 11 0 15 -5 12 -15 -4 -8 -2 -17 3 -20 6 -4 10 5 10 19 0 21 -5 26 -25 26 -22 0 -25 -4 -25 -32z"/>
<path d="M795 2358 c-28 -16 -35 -28 -35 -65 0 -34 29 -63 63 -63 24 0 67 44 67 70 0 23 -42 70 -62 70 -7 0 -22 -6 -33 -12z"/>
<path d="M1302 2352 c-9 -7 -12 -81 -10 -338 l3 -329 53 -3 52 -3 0 218 c0 120 5 235 11 255 17 62 48 90 105 95 46 5 54 2 86 -26 20 -17 40 -31 45 -31 5 0 24 16 43 35 l33 34 -39 40 c-39 39 -92 61 -147 61 -37 0 -94 -27 -112 -53 -15 -21 -20 -16 -27 28 -2 16 -12 21 -43 23 -22 1 -46 -2 -53 -6z"/>
<path d="M1908 2347 c-48 -14 -63 -23 -110 -66 -37 -33 -35 -50 8 -85 l36 -28 31 30 c42 40 75 52 150 52 108 0 157 -40 157 -127 l0 -43 -123 0 c-179 0 -248 -26 -293 -111 -27 -51 -24 -134 6 -188 37 -67 97 -94 218 -99 163 -7 238 22 284 112 19 35 23 62 26 179 2 75 1 161 -2 191 -16 123 -99 186 -254 192 -53 3 -105 -1 -134 -9z m272 -417 c0 -103 -48 -142 -177 -142 -110 0 -157 41 -137 120 14 58 53 72 197 72 l117 0 0 -50z"/>
<path d="M2540 2340 c-75 -25 -134 -90 -150 -163 -7 -32 -10 -134 -8 -272 l3 -220 50 0 50 0 5 235 c4 211 7 239 24 265 26 40 43 53 90 66 97 27 186 -22 205 -112 6 -27 11 -142 11 -255 l0 -205 53 3 52 3 3 220 c4 276 -2 310 -68 376 -77 77 -201 100 -320 59z"/>
<path d="M3180 2347 c-104 -29 -161 -95 -161 -184 -1 -123 65 -173 254 -192 60 -6 121 -17 135 -23 56 -27 49 -104 -13 -139 -69 -39 -222 -26 -288 24 -20 15 -42 27 -49 27 -7 0 -26 -16 -42 -37 l-29 -36 36 -33 c56 -52 155 -78 276 -72 113 6 170 27 217 80 59 67 68 154 24 225 -31 51 -83 71 -224 87 -151 16 -176 28 -176 86 0 66 40 90 150 90 56 0 78 -5 125 -30 31 -16 61 -30 66 -30 5 0 21 19 36 41 l27 41 -22 19 c-66 53 -248 83 -342 56z"/>
<path d="M4443 2350 c-56 -12 -92 -32 -132 -74 l-35 -36 25 -26 c44 -48 56 -49 99 -10 44 40 87 51 169 43 90 -8 118 -33 128 -117 l6 -48 -144 -4 c-127 -3 -150 -6 -192 -27 -96 -47 -135 -165 -85 -261 42 -82 108 -110 263 -110 84 0 108 4 150 24 103 48 115 82 115 313 -1 231 -13 265 -122 313 -54 24 -180 34 -245 20z m254 -430 c-8 -76 -18 -93 -61 -114 -44 -21 -176 -22 -215 -1 -32 16 -41 33 -41 76 0 78 42 98 204 99 l119 0 -6 -60z"/>
<path d="M5065 2343 c-27 -10 -60 -26 -73 -34 -31 -22 -69 -75 -81 -113 -12 -40 -23 -487 -12 -504 5 -9 24 -12 57 -10 l49 3 5 235 c6 261 11 284 73 317 41 22 132 22 173 0 66 -34 68 -47 74 -312 l5 -240 49 -3 c32 -2 52 1 57 10 12 19 11 395 -1 459 -24 128 -108 197 -248 205 -58 4 -90 0 -127 -13z"/>
<path d="M6223 1810 c-71 -29 -46 -130 32 -130 63 0 89 80 39 119 -29 23 -38 24 -71 11z"/>
<path d="M3065 1468 c-3 -7 -20 -55 -39 -105 -19 -51 -30 -93 -25 -93 5 0 14 11 19 25 8 22 16 25 55 25 39 0 47 -4 57 -25 13 -28 34 -35 23 -7 -4 9 -20 54 -37 99 -30 84 -44 105 -53 81z m36 -83 l17 -45 -39 0 c-21 0 -39 1 -39 3 0 16 34 97 38 92 4 -3 14 -26 23 -50z"/>
<path d="M3210 1375 c0 -63 4 -105 10 -105 6 0 10 20 10 45 l0 45 44 0 c35 0 48 5 60 22 37 53 3 98 -74 98 l-50 0 0 -105z m110 71 c21 -26 8 -59 -27 -69 -48 -14 -63 -4 -63 43 0 40 0 40 39 40 21 0 44 -6 51 -14z"/>
<path d="M3425 1455 c-21 -20 -25 -34 -25 -80 0 -47 4 -60 26 -82 20 -20 31 -24 57 -19 45 9 57 31 57 103 0 50 -4 67 -20 83 -27 27 -66 25 -95 -5z m86 -11 c17 -21 18 -117 0 -138 -7 -9 -24 -16 -37 -16 -38 0 -54 26 -54 85 0 59 16 85 54 85 13 0 29 -7 37 -16z"/>
<path d="M3590 1473 c0 -5 14 -35 30 -67 17 -33 31 -77 31 -100 l2 -41 6 50 c4 28 19 74 35 103 15 30 25 57 22 60 -8 7 -10 5 -39 -53 l-25 -49 -26 52 c-24 48 -36 63 -36 45z"/>
<path d="M3780 1388 c-18 -51 -35 -99 -38 -105 -2 -7 0 -13 6 -13 5 0 13 11 16 25 6 22 11 25 56 25 45 0 50 -3 56 -25 5 -22 24 -36 24 -18 0 16 -74 203 -80 203 -4 0 -22 -42 -40 -92z m62 2 l16 -50 -40 0 c-28 0 -38 4 -34 13 2 6 10 29 17 50 7 20 15 37 19 37 3 0 13 -22 22 -50z"/>
<path d="M3962 1374 c2 -102 2 -104 5 -26 2 45 7 82 11 82 4 0 30 -35 57 -78 28 -42 54 -76 59 -74 9 2 11 191 2 200 -3 3 -6 -31 -6 -76 0 -45 -3 -82 -7 -82 -5 0 -28 32 -53 71 -69 109 -70 108 -68 -17z"/>
<path d="M4187 1473 c-4 -3 -7 -51 -7 -105 l0 -98 41 0 c41 0 78 14 91 34 4 6 8 38 8 71 0 66 -4 76 -37 94 -24 12 -86 15 -96 4z m104 -29 c7 -9 13 -40 13 -69 0 -66 -15 -85 -65 -85 l-39 0 0 85 0 85 39 0 c23 0 44 -6 52 -16z"/>
<path d="M4412 1464 c-19 -13 -22 -24 -22 -85 0 -56 4 -73 20 -89 25 -25 61 -26 91 -1 21 17 24 28 24 86 0 58 -3 69 -24 86 -28 23 -59 24 -89 3z m82 -20 c22 -21 21 -111 -1 -136 -40 -44 -93 -6 -93 67 0 72 53 111 94 69z"/>
<path d="M4680 1375 c0 -63 4 -105 10 -105 6 0 10 33 10 80 0 44 3 80 8 80 4 -1 30 -37 57 -80 28 -44 53 -80 58 -80 4 0 7 48 7 107 0 58 -3 103 -7 100 -3 -4 -5 -36 -4 -72 1 -36 -1 -70 -4 -76 -4 -6 -31 24 -61 70 -30 45 -59 81 -64 81 -6 0 -10 -43 -10 -105z"/>
<path d="M4910 1375 l0 -105 59 0 c33 0 63 5 66 10 4 6 -15 10 -49 10 l-56 0 0 39 0 40 48 4 47 3 -47 2 -48 2 0 40 0 40 56 0 c34 0 53 4 49 10 -3 6 -33 10 -66 10 l-59 0 0 -105z"/>
<path d="M5115 1455 c-19 -18 -25 -35 -25 -69 0 -94 41 -134 105 -103 31 15 35 21 35 57 0 38 -2 40 -30 40 -16 0 -30 -4 -30 -10 0 -5 11 -10 25 -10 29 0 32 -16 9 -48 -20 -28 -69 -30 -84 -3 -16 31 -12 117 6 135 22 22 61 20 76 -4 14 -21 28 -27 28 -10 0 19 -40 50 -65 50 -14 0 -37 -11 -50 -25z"/>
<path d="M5320 1460 c-16 -16 -20 -33 -20 -84 0 -69 12 -91 55 -102 52 -13 85 31 85 112 0 78 -72 122 -120 74z m84 -16 c11 -10 16 -34 16 -69 0 -59 -16 -85 -54 -85 -35 0 -50 26 -50 85 0 29 6 60 13 69 17 20 55 21 75 0z"/>
<path d="M5525 1455 c-21 -20 -25 -34 -25 -80 0 -46 4 -60 25 -80 13 -14 33 -25 44 -25 24 0 79 45 68 56 -4 4 -14 -2 -23 -14 -17 -24 -62 -30 -82 -10 -7 7 -12 39 -12 73 0 34 5 66 12 73 20 20 65 14 82 -10 9 -12 19 -18 23 -14 11 11 -44 56 -68 56 -11 0 -31 -11 -44 -25z"/>
<path d="M5710 1376 c0 -64 4 -106 10 -106 6 0 10 40 10 99 0 56 -4 103 -10 106 -6 4 -10 -32 -10 -99z"/>
<path d="M5822 1464 c-19 -13 -22 -24 -22 -85 0 -77 19 -109 64 -109 46 0 69 31 74 98 4 55 2 63 -21 86 -30 30 -62 33 -95 10z m82 -20 c22 -22 22 -117 0 -139 -23 -23 -66 -15 -82 15 -15 29 -10 103 8 125 16 20 54 19 74 -1z"/>
<path d="M6016 1461 c-10 -11 -16 -31 -14 -48 3 -24 10 -30 53 -44 52 -16 67 -38 45 -64 -15 -17 -71 -20 -87 -4 -7 7 -13 7 -17 1 -3 -5 8 -15 24 -22 43 -18 92 -2 104 33 12 34 -7 57 -61 72 -79 22 -65 81 16 72 41 -5 44 -4 26 9 -27 20 -69 17 -89 -5z"/>
</g>
</svg>